if (_typeface_js && _typeface_js.loadFace) _typeface_js.loadFace({"glyphs":{"S":{"x_min":48.828125,"x_max":820.65625,"ha":868,"o":"m 48 192 q 61 269 48 238 q 95 323 73 301 q 146 358 118 344 q 204 378 174 371 q 290 386 244 386 q 362 382 324 386 q 257 417 301 395 q 183 466 213 439 q 133 522 152 493 q 104 579 115 551 q 85 683 85 629 q 87 721 85 702 q 111 811 94 772 q 152 877 128 849 q 203 924 176 905 q 258 954 230 943 q 401 980 323 980 q 457 982 431 982 q 606 967 548 982 q 720 917 682 948 q 767 850 758 887 q 774 798 774 822 q 773 783 774 790 q 752 724 769 748 q 711 683 735 700 q 655 656 686 666 q 591 641 623 645 q 501 635 549 635 q 425 639 465 635 q 561 609 503 628 q 661 568 619 591 q 731 518 704 544 q 777 465 759 491 q 820 331 819 404 q 805 221 820 269 q 764 137 790 172 q 706 77 739 102 q 640 36 673 53 q 459 -7 560 -1 q 386 -10 421 -10 q 322 -7 352 -10 q 218 10 262 -2 q 145 42 174 24 q 96 81 115 60 q 48 192 51 128 "},"/":{"x_min":51.15625,"x_max":566.765625,"ha":595,"o":"m 52 83 q 76 207 58 133 q 122 368 94 282 q 180 546 150 455 l 237 722 l 287 874 q 330 982 313 942 q 379 1046 351 1028 q 432 1070 407 1065 q 493 1068 461 1076 q 537 1048 521 1064 q 561 1006 552 1035 q 563 927 570 978 q 533 776 552 855 q 488 621 513 698 q 439 469 463 545 q 392 327 415 394 q 265 22 332 172 q 222 -30 246 -14 q 179 -50 199 -46 q 128 -48 153 -55 q 86 -26 104 -42 q 59 12 70 -12 q 52 83 47 38 "},"y":{"x_min":41.03125,"x_max":933.234375,"ha":988,"o":"m 41 526 q 51 579 42 552 q 78 632 59 605 q 128 685 96 659 q 222 712 173 710 q 232 712 227 713 q 266 710 248 712 q 316 693 290 706 q 368 659 341 680 q 423 602 396 637 q 466 545 447 573 l 505 489 q 550 565 520 516 q 620 654 579 613 q 718 713 662 694 q 762 720 739 720 q 841 701 799 720 q 909 636 884 681 q 926 589 918 616 q 933 526 933 562 q 924 443 933 490 q 894 339 915 397 q 813 142 854 230 q 737 -8 772 54 q 659 -139 697 -82 q 571 -252 621 -206 q 524 -288 550 -272 q 468 -311 498 -304 q 423 -317 446 -317 q 406 -316 414 -317 q 337 -295 373 -314 q 270 -238 291 -273 q 245 -163 250 -204 q 244 -137 244 -150 q 250 -78 244 -108 q 272 5 259 -33 q 300 75 286 44 l 323 123 q 306 139 315 131 q 290 153 297 147 q 275 168 282 160 q 192 239 229 202 q 133 305 156 275 q 84 373 105 341 q 44 479 52 425 q 41 514 41 496 q 41 526 40 520 "},"g":{"x_min":65,"x_max":924.234375,"ha":944,"o":"m 65 364 q 83 457 68 414 q 128 546 103 510 q 176 607 153 583 q 232 654 203 634 q 378 706 300 694 q 462 713 420 713 q 530 709 496 713 q 671 669 605 699 q 783 596 737 638 q 848 513 821 558 q 890 418 874 468 q 913 317 906 368 q 923 220 920 266 q 924 182 924 201 q 906 -7 924 89 q 855 -168 889 -102 q 775 -277 820 -234 q 678 -344 730 -320 q 575 -377 626 -368 q 466 -388 523 -388 q 310 -369 391 -388 q 252 -341 275 -357 q 215 -309 229 -326 q 194 -275 201 -292 q 186 -241 187 -258 q 185 -228 185 -234 q 201 -164 185 -197 q 244 -116 217 -131 q 300 -95 272 -101 q 338 -93 318 -92 q 368 -94 353 -93 q 462 -75 430 -91 q 507 -38 493 -58 q 522 11 523 -15 q 407 -1 463 -1 q 386 0 397 -1 q 264 21 327 1 q 151 93 201 40 q 101 170 121 125 q 71 264 81 215 q 65 340 65 302 q 65 364 65 352 m 465 261 q 503 250 480 250 q 542 264 527 250 q 558 301 558 278 q 544 341 558 323 q 503 359 530 359 q 463 342 480 359 q 448 307 448 326 q 465 261 448 274 "},"–":{"x_min":82.921875,"x_max":692.46875,"ha":804,"o":"m 83 397 q 92 465 80 433 q 129 519 103 493 q 210 558 155 546 q 345 577 281 573 q 458 579 409 582 q 565 568 515 576 q 639 532 613 556 q 676 485 665 508 q 691 426 689 457 q 686 367 694 394 q 657 318 679 343 q 591 278 636 293 q 400 242 489 245 q 212 254 311 239 q 136 285 163 261 q 98 333 109 308 q 83 397 83 363 "},"e":{"x_min":42,"x_max":774.046875,"ha":813,"o":"m 42 363 q 71 505 46 438 q 99 565 82 534 q 141 622 116 595 q 198 673 165 650 q 273 713 230 697 q 417 735 343 734 q 484 731 448 735 q 554 717 519 728 q 626 687 590 707 q 696 639 662 668 q 734 589 718 616 q 761 528 750 563 q 774 444 772 493 q 749 355 774 390 q 685 303 725 321 q 597 281 645 285 q 570 280 584 280 q 498 287 534 280 q 583 248 538 255 q 666 234 628 240 q 731 214 704 229 q 765 150 758 198 q 765 142 765 146 q 758 95 765 118 q 730 48 750 72 q 666 7 710 24 q 534 -17 605 -12 q 480 -20 508 -20 q 396 -15 440 -20 q 233 26 318 -8 q 134 97 177 51 q 99 142 116 117 q 68 201 82 168 q 48 273 55 233 q 42 337 42 303 q 42 363 42 350 m 424 365 q 462 354 439 354 q 501 368 486 354 q 517 405 517 381 q 503 446 517 428 q 462 464 489 464 q 421 445 438 464 q 406 411 406 430 q 424 365 406 379 "},"J":{"x_min":38.46875,"x_max":675.171875,"ha":760,"o":"m 38 156 q 38 163 38 159 q 47 212 38 189 q 78 255 58 237 q 125 277 98 273 q 199 293 174 281 q 233 319 223 306 q 242 354 243 335 q 236 470 238 410 q 235 580 235 530 q 236 696 235 639 q 259 841 237 776 q 284 894 268 868 q 320 941 299 921 q 372 975 342 962 q 441 989 401 989 q 544 963 497 989 q 584 935 564 953 q 620 890 604 917 q 648 824 636 862 q 664 734 660 786 q 673 563 670 639 q 675 474 675 513 q 674 436 675 454 q 670 326 673 374 q 656 231 668 277 q 625 144 646 191 q 566 58 605 97 q 507 21 545 37 q 421 -3 468 4 q 329 -11 377 -11 q 321 -11 325 -11 q 218 1 268 -10 q 124 37 168 12 q 56 102 81 61 q 38 156 39 126 "},"‐":{"x_min":66,"x_max":675.515625,"ha":730,"o":"m 66 397 q 76 465 63 433 q 113 519 87 493 q 194 558 139 546 q 329 575 265 573 q 441 575 393 578 q 548 561 498 571 q 622 525 596 548 q 659 478 648 501 q 674 419 673 450 q 669 355 677 384 q 640 304 662 329 q 575 266 619 279 q 383 239 472 239 q 196 254 294 239 q 120 285 147 261 q 82 333 92 308 q 66 397 66 363 "}," ":{"x_min":0,"x_max":0,"ha":621},"ﬄ":{"x_min":45,"x_max":2268.890625,"ha":2328,"o":"m 1835 281 q 1826 446 1826 359 q 1829 608 1826 533 q 1841 778 1833 694 q 1873 915 1849 854 q 1900 965 1884 941 q 1937 1010 1915 990 q 1987 1041 1958 1029 q 2052 1053 2016 1053 q 2147 1019 2104 1051 q 2184 985 2165 1006 q 2218 932 2203 964 q 2245 857 2233 900 q 2260 757 2256 814 q 2268 544 2268 645 q 2266 364 2268 443 q 2254 190 2262 271 q 2223 83 2247 129 q 2197 44 2213 63 q 2159 10 2181 25 q 2108 -12 2137 -3 q 2051 -19 2082 -19 q 2040 -19 2045 -19 q 1978 -4 2005 -18 q 1928 29 1950 8 q 1892 77 1907 50 q 1867 132 1877 104 q 1835 281 1843 197 m 936 611 q 954 672 936 649 q 1005 708 975 697 q 1070 720 1036 719 q 1078 720 1075 720 q 1132 715 1108 720 q 1131 741 1131 728 q 1134 796 1131 767 q 1156 876 1140 832 q 1208 965 1173 921 q 1302 1036 1246 1009 q 1427 1067 1352 1059 q 1464 1070 1444 1070 q 1610 1048 1528 1070 q 1666 1020 1641 1037 q 1702 981 1687 1004 q 1714 935 1714 962 q 1713 921 1714 928 q 1701 876 1711 895 q 1672 846 1691 859 q 1625 835 1655 834 q 1618 835 1621 835 q 1584 829 1599 835 q 1556 815 1570 825 q 1535 786 1542 805 q 1531 768 1532 779 q 1528 729 1528 753 q 1528 713 1528 721 q 1615 726 1575 726 q 1628 725 1621 726 q 1698 700 1665 722 q 1733 623 1730 679 q 1733 617 1733 620 q 1708 541 1733 564 q 1648 508 1681 516 q 1599 502 1626 502 q 1559 504 1580 502 q 1572 333 1572 412 q 1568 244 1572 287 q 1551 149 1563 196 q 1515 64 1538 102 q 1456 3 1492 27 q 1367 -21 1419 -20 q 1348 -21 1357 -22 q 1227 9 1271 -21 q 1156 114 1178 44 q 1132 282 1134 183 q 1130 387 1130 332 q 1132 504 1130 442 q 1060 493 1093 493 q 1037 495 1048 493 q 1002 503 1019 496 q 970 522 984 510 q 946 555 955 535 q 936 611 936 579 m 45 611 q 63 672 45 649 q 114 708 84 697 q 179 720 145 719 q 187 720 184 720 q 241 715 217 720 q 240 741 240 728 q 243 796 240 767 q 265 876 249 832 q 317 965 282 921 q 411 1036 355 1009 q 536 1067 461 1059 q 573 1070 553 1070 q 719 1048 637 1070 q 775 1020 750 1037 q 811 981 796 1004 q 823 935 823 962 q 822 921 823 928 q 810 876 820 895 q 781 846 800 859 q 734 835 764 834 q 727 835 730 835 q 693 829 708 835 q 665 815 679 825 q 644 786 651 805 q 640 768 641 779 q 637 729 637 753 q 637 713 637 721 q 724 726 684 726 q 737 725 730 726 q 807 700 774 722 q 842 623 839 679 q 842 617 842 620 q 817 541 842 564 q 757 508 790 516 q 708 502 735 502 q 668 504 689 502 q 681 333 681 412 q 677 244 681 287 q 660 149 672 196 q 624 64 647 102 q 565 3 601 27 q 476 -21 528 -20 q 457 -21 466 -22 q 336 9 380 -21 q 265 114 287 44 q 241 282 243 183 q 239 387 239 332 q 241 504 239 442 q 169 493 202 493 q 146 495 157 493 q 111 503 128 496 q 79 522 93 510 q 55 555 64 535 q 45 611 45 579 "},"^":{"x_min":50.765625,"x_max":822.90625,"ha":882,"o":"m 66 592 q 51 648 54 619 q 55 706 48 677 q 79 756 62 735 q 95 780 80 758 q 134 834 109 803 q 193 904 160 866 q 266 973 226 942 q 348 1026 305 1005 q 437 1047 392 1047 q 525 1026 482 1047 q 608 973 568 1005 q 683 904 648 942 q 744 834 718 866 q 784 780 769 803 q 800 756 798 758 q 821 703 817 733 q 818 642 825 673 q 795 585 812 612 q 750 540 777 558 q 636 518 690 503 q 544 585 581 534 l 516 619 q 483 654 503 634 l 440 697 q 385 639 409 666 l 343 591 q 304 547 322 566 q 247 510 279 520 q 182 504 219 500 q 99 547 144 508 q 66 592 78 565 "},"D":{"x_min":55.609375,"x_max":902.03125,"ha":950,"o":"m 55 355 l 55 433 q 59 569 55 507 q 70 676 63 631 q 86 774 75 730 q 109 848 92 816 q 147 903 126 880 q 193 941 169 926 q 242 965 218 957 q 353 983 293 983 q 369 983 361 983 q 491 974 436 983 q 591 950 547 965 q 671 916 636 936 q 734 877 706 897 q 834 771 798 830 q 886 633 869 711 q 897 559 893 600 q 902 491 902 527 q 901 469 902 481 q 892 366 900 420 q 866 250 885 311 q 820 154 849 195 q 755 83 791 113 q 678 36 719 54 q 597 7 637 18 q 414 -15 511 -15 q 393 -15 403 -15 q 381 -15 387 -15 q 255 2 305 -15 q 168 45 201 21 q 105 104 129 71 q 74 182 84 139 q 59 269 63 225 q 55 355 55 313 m 426 475 q 442 433 426 441 q 482 424 458 424 q 521 438 505 424 q 536 475 536 452 q 522 515 536 497 q 482 533 508 533 q 442 521 458 533 q 426 475 426 509 "},"":{"x_min":0,"x_max":732.484375,"ha":732,"o":"m 0 732 l 732 732 l 732 0 l 0 0 l 0 732 "}," ":{"x_min":0,"x_max":0,"ha":154},"w":{"x_min":52.90625,"x_max":1197.171875,"ha":1215,"o":"m 54 498 q 52 532 52 515 q 74 629 52 593 q 137 699 101 676 q 234 731 179 724 q 322 717 284 731 q 387 680 360 703 q 433 627 415 657 q 462 567 451 597 q 489 403 487 495 q 488 417 488 411 q 504 497 488 469 q 549 544 524 528 q 616 562 579 561 q 700 536 672 560 q 742 482 729 512 q 757 403 757 446 q 767 515 757 466 q 793 599 777 563 q 830 658 809 635 q 873 696 851 681 q 990 731 924 731 q 1062 720 1030 731 q 1115 694 1093 710 q 1152 658 1137 678 q 1176 617 1168 638 q 1197 504 1197 566 q 1178 348 1194 416 q 1145 232 1162 279 q 1102 135 1125 176 q 1026 43 1067 74 q 946 -1 984 12 q 860 -18 902 -16 q 780 -9 815 -18 q 719 12 745 -1 q 675 43 693 26 q 646 80 657 61 q 615 180 619 125 q 580 80 606 124 q 509 12 556 43 q 380 -19 462 -19 q 279 5 322 -19 q 209 61 237 30 q 155 141 176 97 q 101 271 120 208 q 70 386 82 335 q 54 498 58 444 "},"$":{"x_min":52.21875,"x_max":739.40625,"ha":811,"o":"m 52 301 q 61 355 52 333 q 88 393 71 377 q 126 418 105 409 q 170 432 148 427 q 289 436 223 442 q 168 495 209 457 q 110 573 127 534 q 92 669 91 619 q 115 758 95 720 q 166 820 135 796 q 233 860 196 845 q 305 883 270 874 q 309 931 308 910 q 311 971 310 952 q 331 1046 315 1020 q 365 1083 347 1072 q 409 1097 386 1096 q 457 1080 436 1096 q 490 1042 475 1068 q 508 967 505 1016 q 510 929 510 948 q 511 891 511 910 q 623 866 580 883 q 691 826 667 848 q 724 779 716 804 q 732 731 732 754 q 710 663 732 690 q 656 622 688 637 q 585 602 623 608 q 515 596 547 597 l 515 584 q 651 524 605 562 q 716 450 697 486 q 739 358 740 405 q 712 240 739 287 q 648 164 686 193 q 569 122 611 136 q 496 103 527 108 q 493 72 494 84 q 491 50 492 59 q 489 31 489 39 q 469 -28 484 -8 q 437 -56 454 -48 q 395 -66 417 -66 q 349 -59 370 -69 q 316 -31 331 -51 q 299 31 300 -10 q 298 70 298 51 q 296 108 298 88 q 146 156 196 124 q 74 221 95 189 q 52 301 49 258 "},"\\":{"x_min":89.234375,"x_max":595.890625,"ha":687,"o":"m 92 930 q 94 1009 84 980 q 119 1051 104 1037 q 162 1070 136 1066 q 221 1073 193 1079 q 271 1049 244 1068 q 318 984 298 1030 q 359 877 335 946 l 413 726 l 472 551 q 527 372 502 459 q 570 209 552 284 q 594 86 588 134 q 587 15 598 41 q 560 -23 576 -9 q 519 -46 542 -39 q 470 -47 494 -52 q 427 -27 449 -43 q 387 25 405 -12 q 262 333 319 174 q 212 475 237 400 q 164 627 187 550 q 122 781 141 704 q 92 930 103 858 "},"’":{"x_min":52.90625,"x_max":348.09375,"ha":411,"o":"m 52 857 q 90 960 52 918 q 198 1003 127 1003 q 306 962 269 1003 q 347 864 344 922 q 343 768 349 808 q 325 699 337 728 q 297 653 314 671 q 263 626 280 635 q 169 608 223 601 q 146 617 152 610 q 139 631 140 624 q 140 651 137 639 q 156 670 144 664 q 169 673 162 673 q 188 685 187 673 q 187 710 189 698 q 86 756 120 714 q 52 857 52 798 "},"-":{"x_min":66,"x_max":675.515625,"ha":730,"o":"m 66 397 q 76 465 63 433 q 113 519 87 493 q 194 558 139 546 q 329 575 265 573 q 441 575 393 578 q 548 561 498 571 q 622 525 596 548 q 659 478 648 501 q 674 419 673 450 q 669 355 677 384 q 640 304 662 329 q 575 266 619 279 q 383 239 472 239 q 196 254 294 239 q 120 285 147 261 q 82 333 92 308 q 66 397 66 363 "},"Q":{"x_min":79.359375,"x_max":1108.21875,"ha":1156,"o":"m 79 449 q 101 637 79 558 q 159 775 123 717 q 240 869 194 832 q 335 928 286 906 q 563 974 436 974 q 591 974 577 974 q 741 953 676 974 q 854 899 807 932 q 936 823 902 866 q 990 736 969 781 q 1047 500 1040 632 q 1034 375 1047 423 q 1003 286 1022 326 q 1057 240 1030 265 q 1097 182 1083 214 q 1108 126 1108 156 q 1107 111 1108 119 q 1070 21 1104 71 q 985 -54 1032 -36 q 922 -66 952 -66 q 895 -63 908 -66 q 818 -32 853 -56 q 769 16 783 -8 q 700 -7 733 0 q 644 -19 668 -15 q 591 -24 615 -24 q 422 -4 495 -24 q 294 49 348 16 q 203 125 240 82 q 143 211 166 167 q 79 449 87 315 m 553 415 q 591 404 568 404 q 630 418 615 404 q 645 455 645 432 q 631 496 645 478 q 591 514 617 514 q 550 495 567 514 q 535 461 535 480 q 553 415 535 428 "},"M":{"x_min":41,"x_max":1314.015625,"ha":1371,"o":"m 41 284 q 57 491 41 397 q 92 653 73 584 q 145 796 116 732 q 231 920 181 879 q 325 978 281 961 q 419 995 371 995 q 433 994 426 995 q 517 981 480 994 q 580 947 553 967 q 624 899 606 926 q 654 844 642 872 q 683 694 680 777 q 724 845 692 779 q 757 900 738 873 q 804 949 777 927 q 865 984 830 971 q 944 997 899 997 q 1062 963 1012 997 q 1147 890 1113 930 q 1213 784 1185 844 q 1271 610 1250 697 q 1301 453 1291 523 q 1313 293 1311 369 q 1314 275 1313 284 q 1307 190 1314 228 q 1285 114 1299 145 q 1253 60 1271 82 q 1213 25 1234 38 q 1105 -8 1166 -6 q 1010 10 1050 -8 q 939 60 969 29 q 889 131 909 91 q 856 212 869 171 q 825 433 826 309 q 796 309 818 351 q 751 251 774 268 q 697 233 726 233 q 690 233 693 233 q 605 264 635 233 q 559 335 574 295 q 537 436 540 379 q 526 287 537 351 q 499 175 516 222 q 461 97 483 128 q 417 44 439 65 q 298 -8 364 -2 q 207 4 245 -8 q 141 37 169 17 q 95 83 113 57 q 66 137 77 110 q 41 284 41 202 "},"C":{"x_min":38.65625,"x_max":936.96875,"ha":965,"o":"m 39 505 q 78 708 40 613 q 120 789 95 748 q 185 866 146 831 q 278 932 225 902 q 404 978 332 961 q 551 995 475 995 q 563 996 557 995 q 692 984 622 996 q 842 927 770 971 q 901 864 879 901 q 918 827 911 847 q 927 783 925 807 q 928 767 928 775 q 925 731 928 750 q 907 672 921 704 q 864 619 891 640 q 798 590 840 600 q 753 585 778 584 q 690 591 725 585 q 645 595 667 595 q 612 592 628 595 q 558 569 583 587 q 530 501 530 549 q 546 449 530 472 q 595 413 561 428 q 655 403 617 402 q 694 405 673 403 q 737 408 717 408 q 807 400 774 408 q 849 384 828 394 q 888 357 871 375 q 918 314 905 340 q 936 254 932 289 q 936 236 936 244 q 929 173 936 204 q 898 102 921 140 q 827 38 875 65 q 702 -1 775 11 q 585 -10 652 -10 q 550 -9 568 -10 q 338 26 460 -6 q 184 115 251 54 q 128 177 155 141 q 81 260 102 212 q 48 369 60 308 q 39 477 39 419 q 39 505 38 491 "},"!":{"x_min":73.453125,"x_max":512.625,"ha":615,"o":"m 74 731 q 78 826 75 777 q 110 936 86 888 q 136 977 120 957 q 174 1013 153 997 q 225 1038 196 1029 q 292 1048 254 1048 q 377 1021 337 1043 q 445 963 411 1001 q 494 855 478 925 q 511 726 509 787 q 510 618 514 665 q 494 516 504 562 q 455 429 480 467 q 398 371 434 397 q 306 345 362 345 q 190 379 234 345 q 123 456 147 414 q 85 567 96 505 q 74 647 76 603 q 74 731 72 691 m 126 107 q 139 165 126 138 q 177 213 153 193 q 234 245 201 233 q 305 257 267 257 q 374 245 342 257 q 432 213 407 233 q 471 165 457 193 q 485 107 485 138 q 471 48 485 75 q 432 0 457 21 q 374 -30 407 -19 q 305 -42 342 -42 q 234 -30 267 -42 q 177 0 201 -19 q 139 48 153 21 q 126 107 126 75 "},"ﬁ":{"x_min":45,"x_max":1391.171875,"ha":1430,"o":"m 948 255 q 946 318 946 287 q 951 401 946 362 q 976 551 957 478 q 1025 648 993 615 q 1090 695 1058 680 q 1169 714 1127 712 q 1182 714 1176 714 q 1272 692 1237 714 q 1334 636 1311 668 q 1373 550 1360 600 q 1388 442 1383 503 q 1391 362 1391 407 q 1390 314 1391 340 q 1372 140 1388 238 q 1329 45 1361 78 q 1264 -2 1297 12 q 1178 -21 1224 -19 q 1163 -21 1170 -21 q 1081 -4 1113 -21 q 1022 37 1044 14 q 981 99 996 63 q 948 255 953 174 m 977 887 q 977 899 977 893 q 985 946 977 923 q 1016 997 995 974 q 1066 1035 1037 1020 q 1130 1054 1095 1050 q 1151 1056 1141 1056 q 1196 1049 1175 1056 q 1252 1023 1227 1041 q 1294 978 1277 1005 q 1314 921 1310 952 q 1314 908 1314 915 q 1305 861 1314 885 q 1275 809 1295 832 q 1226 772 1255 786 q 1162 753 1197 757 q 1139 752 1150 752 q 1095 758 1116 752 q 1038 785 1063 766 q 997 829 1013 803 q 977 887 981 855 m 45 611 q 63 672 45 649 q 114 708 84 697 q 179 720 145 719 q 187 720 184 720 q 241 715 217 720 q 240 741 240 728 q 243 796 240 767 q 265 876 249 832 q 317 965 282 921 q 411 1036 355 1009 q 536 1067 461 1059 q 573 1070 553 1070 q 719 1048 637 1070 q 775 1020 750 1037 q 811 981 796 1004 q 823 935 823 962 q 822 921 823 928 q 810 876 820 895 q 781 846 800 859 q 734 835 764 834 q 727 835 730 835 q 693 829 708 835 q 665 815 679 825 q 644 786 651 805 q 640 768 641 779 q 637 729 637 753 q 637 713 637 721 q 724 726 684 726 q 737 725 730 726 q 807 700 774 722 q 842 623 839 679 q 842 617 842 620 q 817 541 842 564 q 757 508 790 516 q 708 502 735 502 q 668 504 689 502 q 681 333 681 412 q 677 244 681 287 q 660 149 672 196 q 624 64 647 102 q 565 3 601 27 q 476 -21 528 -20 q 457 -21 466 -22 q 336 9 380 -21 q 265 114 287 44 q 241 282 243 183 q 239 387 239 332 q 241 504 239 442 q 169 493 202 493 q 146 495 157 493 q 111 503 128 496 q 79 522 93 510 q 55 555 64 535 q 45 611 45 579 "},"{":{"x_min":148,"x_max":670.15625,"ha":789,"o":"m 148 474 l 148 478 l 148 480 q 169 571 149 539 q 212 617 189 602 q 275 638 240 634 q 317 666 307 644 q 325 714 327 689 q 310 777 322 743 q 287 861 293 819 q 287 938 282 897 q 320 1016 293 980 q 364 1052 337 1037 q 424 1073 388 1064 q 518 1079 461 1083 q 582 1062 552 1073 q 630 1037 607 1053 q 662 994 654 1020 q 669 942 672 966 q 652 901 666 921 q 601 874 639 881 q 561 843 575 866 q 550 786 550 823 q 582 685 551 748 q 599 604 603 640 q 582 542 596 568 q 550 500 568 516 q 523 478 531 483 q 550 455 531 472 q 582 412 568 438 q 599 350 596 385 q 582 270 603 315 q 550 168 551 205 q 561 111 550 130 q 601 80 574 87 q 652 52 639 72 q 669 12 666 33 q 662 -40 672 -12 q 630 -82 654 -66 q 582 -108 607 -98 q 518 -123 552 -119 q 424 -119 461 -128 q 364 -96 387 -109 q 320 -62 337 -81 q 287 15 293 -26 q 287 92 282 56 q 310 176 293 134 q 325 240 322 210 q 317 286 327 265 q 275 315 307 308 q 212 336 241 318 q 169 384 189 352 q 148 474 149 416 "},"X":{"x_min":25.0625,"x_max":1060.0625,"ha":1156,"o":"m 48 865 q 119 945 69 905 q 208 992 165 981 q 258 999 233 999 q 290 996 275 999 q 365 967 330 988 q 430 919 401 947 q 558 748 499 854 q 673 926 608 859 q 734 975 701 954 q 806 1002 768 996 q 829 1004 817 1004 q 887 994 857 1004 q 978 939 930 981 q 1031 870 1015 906 q 1049 794 1048 833 q 1049 790 1049 792 q 1038 719 1049 754 q 1008 648 1026 682 q 886 490 965 568 q 1016 348 971 422 q 1048 281 1036 316 q 1060 215 1060 249 q 1060 207 1060 211 q 1041 129 1058 169 q 982 50 1023 88 q 874 -12 926 -2 q 834 -17 853 -16 q 775 -7 803 -17 q 687 44 727 8 q 616 117 647 79 q 566 189 585 155 q 541 238 547 223 q 426 58 490 124 q 366 8 398 29 q 297 -18 335 -12 q 276 -19 286 -19 q 218 -8 248 -19 q 130 48 177 6 q 69 129 88 88 q 50 210 51 171 q 50 217 50 214 q 61 286 50 253 q 95 355 74 323 q 233 501 143 432 q 76 644 130 568 q 37 712 52 676 q 25 780 24 745 q 48 865 25 823 "},"#":{"x_min":54.265625,"x_max":1005.125,"ha":1054,"o":"m 54 344 q 63 392 54 369 q 91 428 71 411 q 147 453 111 445 q 233 465 181 461 q 245 536 237 499 l 231 536 q 227 537 229 536 q 168 555 189 540 q 136 588 147 571 q 120 634 124 609 q 130 682 120 659 q 157 718 139 701 q 212 743 176 735 q 295 755 246 748 q 324 851 307 805 q 357 907 337 889 q 397 930 377 925 q 444 931 419 935 q 493 918 472 930 q 524 884 511 907 q 534 820 537 861 l 531 793 l 529 768 q 583 767 556 768 q 637 766 609 766 l 650 810 q 663 851 656 832 q 696 907 676 889 q 735 930 716 925 q 783 931 758 935 q 832 918 811 930 q 863 884 850 907 q 873 820 876 861 l 870 785 q 866 750 869 767 l 904 746 q 965 722 944 739 q 994 687 986 705 q 1004 641 1003 666 q 999 591 1007 615 q 971 554 992 571 q 910 533 951 536 q 871 529 891 530 q 833 527 852 529 q 827 492 830 509 q 819 458 823 474 q 829 456 824 457 q 837 455 833 455 q 898 432 877 448 q 927 397 919 415 q 937 351 937 376 q 931 301 940 324 q 905 263 925 281 q 844 242 885 245 l 808 240 l 772 237 l 762 200 l 755 173 l 748 149 q 720 93 739 112 q 682 67 701 75 q 633 61 658 59 q 588 79 608 65 q 558 112 571 90 q 544 170 544 134 q 544 231 541 198 l 486 231 q 430 233 458 231 q 421 198 425 213 q 415 172 417 183 q 409 149 411 160 q 381 93 400 112 q 343 67 362 75 q 294 61 319 59 q 250 79 269 65 q 219 112 233 90 q 204 170 205 134 l 204 204 q 205 242 204 223 q 186 244 194 244 q 173 245 179 244 q 162 247 168 245 q 103 265 124 250 q 70 298 82 280 q 54 344 58 319 m 484 478 q 529 477 507 478 q 573 476 551 476 q 577 498 576 486 q 581 520 579 510 q 536 522 558 522 q 493 523 514 522 q 484 478 489 499 "},")":{"x_min":59.921875,"x_max":563.5625,"ha":621,"o":"m 60 1005 q 84 1067 63 1036 q 162 1122 105 1098 q 265 1132 216 1144 q 353 1089 313 1119 q 422 1017 393 1058 q 467 943 451 976 q 535 757 513 849 q 561 581 556 665 q 558 420 566 497 q 532 279 549 344 q 416 -4 495 126 q 371 -57 396 -34 q 316 -93 347 -80 q 248 -104 285 -105 q 170 -84 212 -103 q 101 -28 119 -62 q 80 37 83 5 q 89 115 77 74 q 135 282 120 201 q 155 436 151 362 q 155 575 159 510 q 141 695 151 640 q 71 933 119 824 q 60 1005 56 969 "},"}":{"x_min":102.453125,"x_max":625.84375,"ha":718,"o":"m 103 25 q 119 65 105 46 q 170 92 133 84 q 210 123 197 99 q 221 180 221 143 q 190 282 221 218 q 172 362 169 326 q 190 424 176 398 q 223 466 205 450 q 250 489 241 483 q 223 511 242 494 q 190 554 205 527 q 172 616 176 580 q 190 695 169 651 q 221 797 221 759 q 210 855 222 836 q 170 886 197 879 q 119 913 133 893 q 103 954 105 933 q 111 1007 100 979 q 141 1049 117 1033 q 190 1074 165 1065 q 254 1091 219 1085 q 347 1086 309 1096 q 409 1064 385 1076 q 452 1029 436 1048 q 485 951 480 993 q 484 873 490 909 q 462 790 479 832 q 446 726 448 755 q 454 679 444 701 q 496 651 465 657 q 560 629 532 647 q 604 581 583 613 q 625 491 624 550 l 625 489 l 625 486 q 604 396 624 427 q 560 348 583 364 q 496 327 532 330 q 454 299 465 320 q 446 252 444 278 q 462 189 448 223 q 484 105 479 147 q 485 28 490 69 q 452 -50 480 -13 q 409 -86 436 -71 q 347 -108 385 -98 q 254 -112 309 -118 q 190 -95 219 -107 q 141 -70 165 -86 q 111 -27 117 -54 q 103 25 100 0 "},"a":{"x_min":41.375,"x_max":950.1875,"ha":977,"o":"m 41 313 q 41 330 41 322 q 67 501 41 424 q 101 573 80 537 q 153 638 122 609 q 230 687 185 667 q 336 713 275 707 q 380 715 360 715 q 461 703 427 715 q 536 665 508 687 q 581 604 568 640 q 613 663 592 638 q 661 704 632 685 q 740 722 691 722 q 808 707 779 722 q 859 667 837 692 q 897 610 881 642 q 922 545 912 578 q 948 368 946 467 q 950 311 950 339 q 946 230 950 267 q 926 129 939 171 q 894 58 912 86 q 857 12 876 29 q 757 -24 814 -25 q 750 -24 753 -24 q 743 -24 746 -24 q 678 -11 709 -24 q 624 26 651 0 q 591 106 598 53 q 541 35 577 65 q 455 -7 511 10 q 373 -19 421 -18 q 308 -15 343 -19 q 174 29 233 -6 q 125 68 149 45 q 82 127 101 92 q 52 207 63 162 q 41 313 41 253 m 482 288 q 520 277 497 277 q 559 291 544 277 q 575 328 575 305 q 561 368 575 350 q 520 386 547 386 q 480 368 497 386 q 465 334 465 353 q 482 288 465 301 "},"—":{"x_min":82.921875,"x_max":864.234375,"ha":1156,"o":"m 83 397 q 92 465 80 433 q 129 518 103 493 q 210 558 155 544 q 391 582 298 579 q 560 584 483 586 q 737 569 651 579 q 811 535 784 558 q 848 488 837 512 q 864 427 862 460 q 855 363 865 393 q 826 311 847 336 q 759 269 804 285 q 640 243 709 252 q 498 233 572 235 q 349 236 423 231 q 212 254 275 241 q 138 288 163 264 q 99 336 112 312 q 83 397 84 364 "},"=":{"x_min":72.90625,"x_max":678.21875,"ha":744,"o":"m 73 327 q 82 380 69 355 q 119 421 92 401 q 200 452 145 442 q 333 466 269 464 q 445 466 397 469 q 552 455 502 462 q 626 426 600 444 q 662 389 651 408 q 677 345 676 368 q 672 295 680 319 q 644 255 665 275 q 579 226 623 235 q 387 204 476 204 q 201 216 299 204 q 126 240 152 222 q 88 277 99 258 q 73 327 75 299 m 73 636 q 82 689 69 663 q 119 730 92 710 q 200 760 145 751 q 333 775 269 772 q 445 775 397 777 q 552 763 502 770 q 626 734 600 752 q 662 698 651 716 q 677 654 676 677 q 672 604 680 628 q 644 564 665 584 q 579 534 623 544 q 387 512 476 512 q 201 525 299 513 q 126 549 152 531 q 88 586 99 567 q 73 636 75 608 "},"N":{"x_min":45.640625,"x_max":1083.171875,"ha":1138,"o":"m 47 370 q 45 441 45 407 q 50 568 45 509 q 76 766 57 671 q 122 874 89 826 q 200 951 150 916 q 331 991 250 987 q 349 992 340 992 q 432 979 395 992 q 509 940 476 965 q 565 882 542 915 q 603 813 587 848 q 643 625 638 731 q 643 643 643 634 q 651 749 643 703 q 674 840 659 803 q 709 904 690 878 q 750 946 729 930 q 862 982 799 982 q 869 982 865 982 q 966 958 929 982 q 1026 904 1005 934 q 1059 823 1051 868 q 1083 591 1083 701 q 1075 394 1083 481 q 1048 205 1066 295 q 1024 128 1039 161 q 992 73 1009 95 q 956 35 975 50 q 918 12 937 21 q 844 -3 882 -3 q 828 -2 836 -3 q 819 -2 824 -2 q 725 12 767 -2 q 646 58 680 29 q 586 125 611 87 q 544 201 562 163 q 485 411 501 293 q 487 350 487 378 q 483 262 487 302 q 461 153 476 199 q 426 79 446 108 q 384 33 406 50 q 281 -3 338 -3 q 265 -2 273 -3 q 253 -3 259 -2 q 169 19 202 -3 q 111 72 132 43 q 76 151 87 106 q 47 370 50 261 "},"2":{"x_min":39.875,"x_max":761.140625,"ha":808,"o":"m 40 763 q 49 827 38 798 q 79 877 61 855 q 122 915 98 898 q 173 943 147 931 q 314 980 234 969 q 475 968 411 987 q 576 921 539 948 q 642 845 621 889 q 676 754 668 799 q 681 667 685 710 q 667 583 678 623 q 640 508 655 543 q 539 352 602 426 q 651 331 601 351 q 692 309 672 323 q 728 275 712 295 q 752 227 743 255 q 760 162 762 200 q 742 100 759 126 q 696 55 725 73 q 632 25 668 37 q 560 6 597 13 q 366 -5 474 -8 q 194 20 255 -5 q 103 76 133 46 q 59 158 67 112 q 67 258 52 216 q 109 334 82 301 q 175 398 137 368 l 254 461 q 290 497 274 478 q 317 538 307 516 q 327 581 327 559 q 314 622 327 602 q 272 653 295 646 q 227 658 248 661 q 176 645 202 655 q 102 653 128 636 q 62 695 76 670 q 40 763 46 723 "},"Z":{"x_min":50,"x_max":964.65625,"ha":1009,"o":"m 50 751 q 95 865 50 815 q 145 906 115 886 q 222 942 176 926 q 333 966 268 958 q 458 974 388 974 q 483 974 470 974 q 672 958 597 971 q 792 919 748 945 q 850 855 836 893 q 861 797 861 829 q 859 766 861 783 q 817 652 847 711 q 747 534 792 599 q 627 401 702 469 q 696 405 663 406 q 795 396 749 405 q 858 377 827 389 q 912 342 888 364 q 950 288 935 319 q 964 211 964 256 q 924 74 964 122 q 821 3 884 25 q 680 -22 757 -19 q 531 -26 603 -26 q 389 -24 459 -26 q 262 -9 320 -23 q 160 35 203 4 q 96 127 117 66 q 85 195 85 161 q 85 207 85 201 q 102 284 88 247 q 140 354 117 321 q 190 416 163 387 q 338 545 251 483 q 319 544 329 545 q 194 562 250 544 q 140 585 166 570 q 95 622 115 600 q 62 676 75 644 q 50 751 50 709 "}," ":{"x_min":0,"x_max":0,"ha":207},"u":{"x_min":57.96875,"x_max":896.734375,"ha":944,"o":"m 58 403 q 73 559 58 481 q 123 661 89 627 q 194 705 157 694 q 257 716 224 716 q 284 714 270 716 q 356 688 324 709 q 407 633 384 669 q 433 533 430 597 q 433 480 433 509 q 437 426 434 452 q 450 384 441 401 q 478 367 459 367 q 514 406 510 367 q 521 533 519 445 q 546 639 521 601 q 600 693 571 676 q 679 716 634 713 q 693 716 686 716 q 788 695 752 716 q 849 643 827 672 q 885 564 875 608 q 896 456 896 508 q 895 424 896 440 q 879 304 890 357 q 843 189 865 243 q 769 80 816 128 q 722 40 748 59 q 661 6 695 21 q 584 -16 626 -7 q 505 -23 548 -24 q 491 -23 498 -23 q 312 2 383 -20 q 201 51 242 25 q 127 121 152 82 q 70 260 84 183 q 58 391 57 329 q 58 403 58 397 "},"k":{"x_min":56,"x_max":977.703125,"ha":1025,"o":"m 57 399 q 56 486 56 444 q 60 619 56 557 q 87 844 66 736 q 105 905 94 872 q 136 967 115 938 q 190 1017 157 997 q 278 1040 224 1037 q 287 1040 283 1040 q 354 1031 325 1040 q 412 999 387 1020 q 452 953 436 979 q 478 901 468 927 q 501 754 502 837 q 565 823 533 797 q 627 862 597 849 q 682 877 656 875 q 696 877 690 877 q 732 873 714 877 q 833 818 786 861 q 869 761 859 790 q 882 700 881 731 q 874 648 882 674 q 854 596 867 620 q 772 482 827 538 q 846 422 810 458 q 910 344 882 386 q 957 257 939 302 q 977 169 975 212 q 977 159 977 164 q 963 89 977 122 q 908 25 947 51 q 816 -13 859 -7 q 793 -15 804 -14 q 736 -5 763 -15 q 666 36 698 8 q 607 97 633 63 q 498 299 545 176 q 499 269 499 284 q 482 133 499 193 q 458 74 474 103 q 417 23 441 44 q 357 -10 393 1 q 292 -19 329 -19 q 275 -19 283 -19 q 187 12 222 -16 q 131 75 152 41 q 90 162 106 114 q 57 399 61 279 "}," ":{"x_min":0,"x_max":0,"ha":621},"€":{"x_min":30.515625,"x_max":944.609375,"ha":968,"o":"m 30 368 q 54 432 30 412 q 105 458 78 452 q 180 458 139 463 q 176 481 177 468 q 175 505 174 492 q 180 529 176 518 q 105 529 139 523 q 54 554 78 534 q 30 617 30 573 q 55 681 30 662 q 111 704 80 699 q 191 699 147 709 q 263 844 212 780 q 316 897 286 870 q 388 943 347 923 q 481 976 429 963 q 600 989 534 989 q 784 958 706 983 q 849 931 817 947 q 903 892 880 915 q 937 838 926 869 q 942 768 948 807 q 914 701 936 728 q 858 663 894 677 q 759 668 822 649 q 671 681 701 683 q 628 669 641 678 q 609 639 612 658 q 689 629 654 637 q 740 605 718 622 q 759 558 763 588 q 727 516 755 527 q 666 502 698 505 q 580 509 629 500 q 576 495 577 502 q 575 482 575 490 q 580 467 576 474 q 666 469 629 473 q 727 455 698 466 q 759 417 755 443 q 742 366 765 384 q 690 340 719 348 q 609 329 655 331 q 628 298 613 309 q 661 285 638 288 q 720 298 683 283 q 766 312 739 305 q 823 320 794 320 q 878 308 852 320 q 921 267 905 296 q 934 172 943 221 q 890 84 926 124 q 792 17 854 44 q 648 -12 730 -9 q 485 -3 560 -15 q 352 43 411 9 q 251 135 293 77 q 190 279 210 192 q 109 275 145 269 q 54 299 79 279 q 30 368 30 319 "},"¢":{"x_min":58,"x_max":730.671875,"ha":770,"o":"m 58 529 q 83 670 58 604 q 109 727 92 698 q 151 783 126 756 q 211 832 177 809 q 291 868 245 854 q 300 870 294 869 q 309 872 304 872 q 323 876 315 873 q 325 900 325 888 q 326 923 325 912 q 345 993 330 969 q 376 1029 359 1018 q 419 1041 396 1041 q 464 1026 444 1040 q 494 990 481 1015 q 511 921 508 965 q 512 900 511 910 q 512 880 512 890 q 591 854 552 872 q 666 803 630 836 q 694 762 683 786 q 706 713 702 742 q 696 644 710 683 q 658 596 683 615 q 601 568 637 579 q 508 568 565 556 q 462 573 482 575 q 430 563 444 572 q 416 530 416 555 q 428 502 417 512 q 454 490 436 493 q 510 501 473 487 q 583 515 547 516 q 650 498 615 514 q 714 436 686 482 q 730 368 731 402 q 714 302 730 337 q 648 230 697 266 q 612 209 632 219 q 568 192 594 201 q 511 176 543 183 q 510 145 510 159 q 507 118 510 130 q 487 47 503 70 q 457 12 472 23 q 415 0 437 0 q 371 15 390 1 q 339 50 354 26 q 322 120 325 75 q 321 150 321 136 q 319 180 321 165 l 273 196 q 224 215 248 204 q 141 282 177 238 q 83 378 109 318 q 58 529 58 438 "},"s":{"x_min":67.828125,"x_max":760.96875,"ha":779,"o":"m 67 125 q 67 133 67 129 q 77 186 67 163 q 106 232 87 212 q 148 265 124 252 q 197 286 172 278 q 331 309 255 306 q 188 365 237 331 q 119 432 140 400 q 94 511 94 469 q 112 589 95 556 q 154 646 128 622 q 211 686 180 671 q 276 714 242 702 q 450 739 353 739 q 607 723 547 736 q 701 687 668 710 q 746 634 734 664 q 755 578 756 607 q 755 571 755 575 q 740 517 754 539 q 705 480 726 494 q 658 456 685 465 q 604 443 632 447 q 529 438 569 437 q 458 441 495 438 q 563 419 518 433 q 642 387 609 405 q 696 349 674 370 q 730 310 718 329 q 760 208 760 264 q 747 127 760 162 q 713 66 734 92 q 664 22 691 40 q 609 -7 637 4 q 458 -42 543 -35 q 408 -43 432 -42 q 322 -39 361 -43 q 223 -22 265 -34 q 153 3 181 -11 q 108 35 124 18 q 67 125 67 73 "},"B":{"x_min":51.546875,"x_max":884.0625,"ha":928,"o":"m 51 468 q 59 599 51 540 q 79 697 67 657 q 107 782 91 745 q 152 863 125 829 q 212 921 180 897 q 281 960 245 946 q 349 982 316 974 q 463 994 404 994 q 518 991 490 994 q 676 957 616 987 q 772 893 737 928 q 830 802 812 853 q 842 722 843 757 q 836 673 842 695 q 792 587 820 621 q 714 524 760 549 q 812 469 777 504 q 862 402 847 435 q 883 318 881 363 q 883 300 884 309 q 872 216 883 254 q 833 139 858 172 q 775 83 808 107 q 706 45 741 60 q 516 0 623 9 q 468 -1 491 -1 q 409 1 437 -1 q 322 18 360 7 q 252 44 283 29 q 200 75 222 58 q 118 163 145 113 q 64 315 76 233 q 51 468 51 398 m 413 661 q 425 620 413 639 q 469 602 437 602 q 511 620 497 602 q 524 661 524 639 q 511 698 524 682 q 469 714 497 714 q 429 699 445 714 q 413 661 413 685 m 443 283 q 482 271 458 272 q 521 285 505 271 q 536 322 536 299 q 522 363 536 345 q 482 381 508 381 q 440 363 458 381 q 425 329 425 348 q 443 283 425 296 "},"…":{"x_min":68,"x_max":1395.96875,"ha":1466,"o":"m 1046 162 q 1057 229 1046 197 q 1092 285 1069 261 q 1147 323 1114 309 q 1220 337 1179 337 q 1296 323 1263 337 q 1351 285 1329 309 q 1385 229 1374 261 q 1395 162 1395 197 q 1385 93 1395 126 q 1351 37 1374 61 q 1296 0 1329 14 q 1220 -13 1264 -13 q 1147 0 1179 -13 q 1092 37 1114 14 q 1057 93 1069 61 q 1046 162 1046 126 m 557 162 q 568 229 557 197 q 603 285 580 261 q 658 323 625 309 q 731 337 690 337 q 807 323 774 337 q 862 285 840 309 q 896 229 885 261 q 906 162 906 197 q 896 93 906 126 q 862 37 885 61 q 807 0 840 14 q 731 -13 775 -13 q 658 0 690 -13 q 603 37 625 14 q 568 93 580 61 q 557 162 557 126 m 68 162 q 79 229 68 197 q 114 285 91 261 q 169 323 136 309 q 242 337 201 337 q 318 323 285 337 q 373 285 351 309 q 407 229 396 261 q 417 162 417 197 q 407 93 417 126 q 373 37 396 61 q 318 0 351 14 q 242 -13 286 -13 q 169 0 201 -13 q 114 37 136 14 q 79 93 91 61 q 68 162 68 126 "},"?":{"x_min":81.625,"x_max":811.609375,"ha":897,"o":"m 91 686 q 81 739 83 710 q 88 801 80 768 q 118 871 96 834 q 178 948 140 908 q 320 1026 241 1001 q 394 1040 353 1035 q 482 1039 435 1045 q 580 1014 528 1033 q 690 959 633 995 q 770 877 743 926 q 806 774 797 829 q 809 662 814 719 q 790 554 804 605 q 760 463 777 503 q 728 402 743 423 q 649 318 695 348 q 605 296 629 305 q 553 284 581 286 q 492 292 524 283 q 423 324 459 301 q 388 360 399 338 q 372 405 376 381 q 373 455 369 429 q 385 507 377 482 q 442 630 403 565 q 349 565 396 588 q 258 544 309 545 q 157 584 207 543 q 91 686 108 630 m 347 87 q 394 203 347 163 q 523 243 442 243 q 655 199 604 243 q 706 85 706 155 q 655 -26 706 13 q 523 -66 604 -66 q 394 -20 442 -66 q 347 87 347 24 "},"H":{"x_min":46.796875,"x_max":1026.828125,"ha":1063,"o":"m 46 472 q 51 630 47 565 q 66 762 56 707 q 104 878 77 827 q 131 922 115 901 q 168 959 147 943 q 217 986 190 976 q 278 995 244 995 q 357 981 324 995 q 415 945 389 967 q 456 895 440 923 q 483 837 472 866 q 508 678 508 768 l 560 678 q 587 837 562 767 q 613 895 596 866 q 655 947 630 925 q 714 983 680 969 q 792 996 747 996 q 891 962 845 992 q 966 879 930 935 q 1013 722 1001 823 q 1026 536 1024 624 q 1026 480 1026 507 q 1024 382 1026 426 q 1013 237 1020 304 q 979 115 1005 169 q 951 70 968 91 q 911 31 934 49 q 859 4 889 13 q 792 -5 830 -5 q 719 8 751 -5 q 663 45 687 22 q 624 96 640 68 q 597 154 608 125 q 567 311 572 223 l 515 311 q 479 154 507 222 q 449 96 467 125 q 408 46 432 68 q 352 11 384 25 q 280 -2 320 -2 q 177 26 223 0 q 138 57 158 39 q 101 104 118 75 q 72 170 84 132 q 56 260 61 208 q 46 462 46 373 q 46 472 46 467 "},"c":{"x_min":52.90625,"x_max":769.78125,"ha":791,"o":"m 52 354 q 80 505 54 435 q 109 567 91 536 q 153 626 127 598 q 217 677 180 655 q 302 716 254 700 q 441 736 370 735 q 450 737 445 736 q 571 720 506 737 q 702 646 641 701 q 731 603 720 628 q 745 549 741 581 q 746 537 746 543 q 733 476 746 510 q 693 425 719 446 q 631 396 669 407 q 587 391 612 391 q 533 396 562 390 q 491 403 509 404 q 484 403 487 403 q 450 392 465 402 q 436 356 436 382 q 448 325 437 336 q 478 312 458 316 q 485 312 481 312 q 534 323 503 312 q 613 339 574 339 q 684 321 647 337 q 752 255 722 304 q 769 183 769 219 q 752 112 769 151 q 683 36 735 74 q 558 -17 628 0 q 445 -30 509 -30 q 415 -29 430 -30 q 230 20 331 -25 q 141 90 180 45 q 80 194 108 129 q 52 354 52 259 "},"•":{"x_min":97,"x_max":661.28125,"ha":751,"o":"m 97 454 q 115 563 97 513 q 170 653 134 614 q 258 714 205 692 q 379 736 311 736 q 501 714 448 736 q 589 653 554 692 q 643 563 625 614 q 661 454 661 513 q 643 344 661 396 q 589 254 625 293 q 501 194 554 216 q 379 172 449 172 q 258 194 311 172 q 170 254 205 216 q 115 344 134 293 q 97 454 97 396 "},"¥":{"x_min":29.6875,"x_max":995.328125,"ha":1036,"o":"m 30 737 q 33 816 27 782 q 53 878 40 851 q 84 923 66 904 q 120 954 101 942 q 223 993 165 983 q 311 985 272 994 q 381 958 349 975 q 435 917 412 940 q 474 869 458 894 q 530 737 513 812 q 607 896 559 843 q 701 968 655 949 q 813 986 755 991 q 883 967 853 981 q 932 936 912 954 q 965 894 952 917 q 984 850 978 872 q 992 734 1000 797 q 939 610 979 656 q 854 539 898 564 q 740 498 803 510 q 758 428 751 467 q 814 427 790 427 l 858 427 q 897 425 879 427 q 938 414 925 425 q 958 390 951 403 q 965 357 965 374 q 958 326 963 340 q 941 305 952 315 q 910 293 930 296 q 846 289 883 290 q 765 286 809 288 q 763 269 763 278 q 760 254 762 261 q 816 252 791 252 l 859 252 q 897 251 881 252 q 938 240 925 251 q 958 216 951 229 q 965 183 965 200 q 958 153 963 167 q 941 132 952 142 q 910 120 930 121 q 832 115 878 117 l 727 111 q 719 89 723 98 q 712 73 715 80 q 706 61 708 67 q 638 0 682 18 q 540 -20 594 -20 q 463 -10 495 -20 q 409 11 430 0 q 368 42 384 24 q 327 111 341 73 q 251 113 287 112 q 185 116 216 113 q 146 127 159 117 q 126 148 133 137 q 118 177 119 161 q 124 212 118 197 q 146 237 131 225 q 190 250 161 248 q 243 252 217 251 q 297 253 269 253 q 296 269 297 261 q 295 285 295 278 q 237 287 265 286 q 185 289 209 288 q 146 301 159 290 q 126 322 133 311 q 118 351 119 336 q 126 389 118 374 q 148 414 132 402 q 194 425 164 425 q 246 426 221 425 q 301 427 271 427 q 304 453 302 442 q 307 472 305 464 q 309 489 308 481 q 174 534 234 502 q 124 566 149 548 q 79 610 99 585 q 46 666 59 635 q 30 737 33 697 "},"(":{"x_min":56.171875,"x_max":584.484375,"ha":616,"o":"m 85 274 q 58 450 63 365 q 61 610 53 534 q 88 751 70 686 q 211 1036 127 904 q 258 1089 231 1066 q 318 1124 285 1112 q 389 1136 350 1137 q 473 1117 428 1134 q 543 1059 524 1093 q 564 994 561 1026 q 554 916 567 956 q 508 750 523 830 q 488 595 493 669 q 488 457 484 522 q 503 336 493 392 q 572 98 525 207 q 583 26 588 62 q 559 -35 580 -4 q 481 -90 537 -67 q 372 -100 424 -112 q 279 -56 321 -87 q 206 14 237 -26 q 157 88 175 55 q 85 274 108 183 "},"U":{"x_min":37,"x_max":1028.171875,"ha":1082,"o":"m 37 565 q 37 583 37 574 q 51 776 37 680 q 108 907 69 863 q 188 969 147 951 q 279 988 230 988 q 291 987 285 988 q 384 960 344 984 q 449 898 419 941 q 479 776 479 855 q 477 663 479 716 q 477 637 477 649 q 480 569 477 599 q 496 504 484 528 q 532 479 508 479 q 569 503 557 479 q 585 569 580 527 q 588 637 588 599 q 588 663 588 650 q 585 776 586 716 q 584 788 585 782 q 591 844 584 819 q 612 897 598 874 q 644 934 626 919 q 679 956 661 948 q 778 977 722 977 q 799 978 789 978 q 893 958 856 978 q 962 905 937 934 q 1003 825 990 869 q 1028 621 1027 719 q 1028 608 1028 614 q 1019 447 1028 518 q 986 279 1008 358 q 900 127 957 195 q 842 73 875 100 q 766 25 810 46 q 668 -7 722 4 q 546 -20 613 -20 q 438 -11 487 -20 q 350 11 390 -2 q 277 43 309 25 q 221 79 246 61 q 130 176 163 122 q 85 270 103 221 q 58 370 68 319 q 42 470 47 421 q 37 565 37 519 "},"F":{"x_min":35.65625,"x_max":813.171875,"ha":856,"o":"m 36 440 q 36 486 35 464 q 38 611 36 553 q 54 785 43 700 q 84 871 62 835 q 138 932 107 907 q 206 974 169 958 q 280 999 242 990 q 428 1015 348 1015 q 473 1014 450 1015 q 589 1000 539 1010 q 675 977 640 990 q 736 948 711 964 q 776 915 760 932 q 813 831 811 878 q 813 823 813 827 q 801 764 813 790 q 767 716 789 736 q 717 684 745 697 q 658 664 688 671 q 521 650 598 650 q 491 650 506 650 q 613 617 571 639 q 671 572 654 596 q 693 515 693 546 q 656 425 693 457 q 576 378 620 393 q 462 357 525 359 q 476 230 476 283 q 464 129 476 171 q 434 65 453 90 q 394 26 415 40 q 298 -1 353 -1 q 271 0 285 -1 q 206 10 235 0 q 155 39 177 21 q 118 80 133 57 q 90 126 102 103 q 54 254 64 182 q 36 440 37 346 "},"­":{"x_min":66,"x_max":675.515625,"ha":730,"o":"m 66 397 q 76 465 63 433 q 113 519 87 493 q 194 558 139 546 q 329 575 265 573 q 441 575 393 578 q 548 561 498 571 q 622 525 596 548 q 659 478 648 501 q 674 419 673 450 q 669 355 677 384 q 640 304 662 329 q 575 266 619 279 q 383 239 472 239 q 196 254 294 239 q 120 285 147 261 q 82 333 92 308 q 66 397 66 363 "},":":{"x_min":72,"x_max":386.015625,"ha":471,"o":"m 72 131 q 82 193 72 164 q 113 243 93 221 q 162 276 133 264 q 227 289 190 289 q 346 243 305 289 q 386 131 386 196 q 346 20 386 65 q 227 -24 307 -24 q 112 20 152 -24 q 72 131 72 65 m 72 567 q 112 678 72 632 q 227 724 152 724 q 296 711 266 724 q 346 677 326 698 q 375 627 365 656 q 386 567 386 599 q 346 455 386 500 q 227 411 307 411 q 112 455 152 411 q 72 567 72 500 "},"*":{"x_min":92.921875,"x_max":759.609375,"ha":868,"o":"m 98 718 q 95 756 92 736 q 113 800 98 776 q 183 858 144 849 q 257 858 222 866 q 339 819 297 849 q 339 901 330 865 q 349 932 343 917 q 370 959 356 947 q 404 978 384 971 q 453 985 423 985 q 529 961 499 982 q 569 905 555 942 q 560 800 583 868 q 659 810 615 816 q 696 800 678 807 q 728 780 714 794 q 751 745 743 766 q 759 692 759 723 q 752 637 759 660 q 732 600 744 615 q 705 578 720 586 q 674 567 690 571 q 590 568 637 559 q 629 496 617 532 q 630 431 638 465 q 576 369 622 397 q 493 353 527 342 q 434 390 458 365 q 389 466 408 419 q 337 408 367 428 q 274 390 311 391 q 191 430 237 390 q 161 489 168 458 q 164 548 154 515 q 222 615 174 580 q 139 661 170 635 q 114 686 125 672 q 98 718 103 701 "},"V":{"x_min":39.796875,"x_max":1089.90625,"ha":1119,"o":"m 40 791 q 64 879 44 838 q 125 948 84 919 q 234 990 166 977 q 276 993 255 993 q 328 986 303 993 q 405 948 370 975 q 466 885 440 922 q 512 808 493 848 q 581 588 558 714 q 644 815 600 717 q 689 893 662 856 q 750 956 715 930 q 830 994 786 983 q 874 999 851 999 q 931 992 901 999 q 1018 952 986 980 q 1067 884 1051 923 q 1088 799 1084 845 q 1089 756 1089 778 q 1087 706 1089 731 q 1029 468 1078 598 q 914 230 980 334 q 850 142 886 186 q 773 66 815 99 q 683 13 731 33 q 581 -6 636 -6 q 440 23 503 -6 q 324 101 376 53 q 234 209 273 150 q 166 328 196 269 q 118 440 137 387 q 87 527 98 493 q 63 605 76 560 q 44 697 50 649 q 40 758 40 727 q 40 791 39 774 "}," ":{"x_min":0,"x_max":0,"ha":594},"0":{"x_min":52.765625,"x_max":783.203125,"ha":822,"o":"m 52 430 q 66 630 52 532 q 120 806 80 728 q 231 932 159 884 q 417 980 302 980 q 615 932 542 980 q 725 806 688 884 q 772 630 762 728 q 783 430 783 531 q 755 249 783 328 q 678 116 727 170 q 562 33 629 62 q 417 5 495 5 q 272 33 339 5 q 156 116 205 62 q 80 249 108 170 q 52 430 52 328 m 373 469 q 387 431 373 445 q 427 416 401 416 q 467 432 456 416 q 478 467 478 448 q 464 515 478 499 q 427 530 450 530 q 388 515 402 530 q 373 469 373 499 "},"”":{"x_min":59.6875,"x_max":695.34375,"ha":764,"o":"m 59 857 q 97 960 59 918 q 205 1003 134 1003 q 313 962 276 1003 q 354 864 351 922 q 350 768 356 808 q 332 699 344 728 q 304 653 320 671 q 270 626 287 635 q 176 608 230 601 q 153 617 159 610 q 145 631 147 624 q 147 651 144 639 q 164 670 151 664 q 176 673 169 673 q 195 685 194 673 q 194 710 196 698 q 93 756 128 714 q 59 857 59 798 m 400 857 q 437 960 400 918 q 545 1003 474 1003 q 654 962 616 1003 q 694 864 691 922 q 691 768 697 808 q 673 699 685 728 q 644 653 661 671 q 611 626 628 635 q 516 608 571 601 q 493 617 499 610 q 486 631 487 624 q 487 651 484 639 q 503 670 491 664 q 516 673 509 673 q 535 685 535 673 q 534 710 536 698 q 434 756 467 714 q 400 857 400 798 "},"@":{"x_min":57.90625,"x_max":939.828125,"ha":986,"o":"m 58 521 q 70 613 55 571 q 112 679 82 648 q 201 716 141 710 q 262 711 238 718 q 298 693 286 704 q 320 663 314 681 q 336 692 326 678 q 359 712 344 703 q 398 721 375 721 q 456 693 436 721 q 486 634 476 665 q 499 547 497 596 q 488 431 502 470 q 455 375 474 392 q 402 357 433 356 q 368 363 383 357 q 341 381 354 369 q 326 419 328 394 q 301 385 318 400 q 258 364 285 373 q 187 361 231 356 q 122 382 149 364 q 78 430 98 398 q 58 521 58 463 m 70 258 q 79 229 71 242 q 99 207 86 218 q 139 195 112 197 q 248 191 186 193 q 379 189 311 189 l 518 189 q 653 190 588 189 q 773 193 718 191 q 864 199 828 195 q 894 211 883 201 q 910 233 905 222 q 918 262 916 246 q 910 295 918 280 q 890 319 904 307 q 849 330 877 330 q 600 335 725 332 l 488 335 q 370 334 429 335 q 252 331 311 333 q 143 328 194 330 q 100 316 115 327 q 79 292 86 305 q 70 258 70 277 m 261 521 q 268 502 261 509 q 286 496 275 496 q 304 502 297 496 q 311 521 311 509 q 304 541 311 534 q 286 548 297 548 q 268 541 275 548 q 261 521 261 534 m 499 661 q 511 707 499 689 q 542 735 524 725 q 583 749 561 746 q 623 753 604 753 q 625 812 618 787 q 651 852 632 834 q 715 870 671 870 q 777 851 757 870 q 806 811 797 833 q 812 751 814 784 q 876 746 848 754 q 919 720 900 739 q 939 661 939 700 q 921 607 939 625 q 880 583 902 590 q 820 576 853 575 q 820 462 826 513 q 796 385 815 420 q 733 350 776 350 q 667 369 688 350 q 637 419 645 387 q 631 493 629 452 q 635 580 632 534 q 567 580 596 575 q 519 603 540 586 q 499 661 499 621 "},"i":{"x_min":55.921875,"x_max":500.171875,"ha":540,"o":"m 57 255 q 55 318 55 287 q 60 401 55 362 q 85 551 66 478 q 134 648 102 615 q 199 695 167 680 q 278 714 236 712 q 291 714 285 714 q 381 692 346 714 q 443 636 420 668 q 482 550 469 600 q 497 442 492 503 q 500 362 500 407 q 499 314 500 340 q 481 140 497 238 q 438 45 470 78 q 373 -2 406 12 q 287 -21 333 -19 q 272 -21 279 -21 q 190 -4 222 -21 q 131 37 153 14 q 90 99 105 63 q 57 255 62 174 m 86 887 q 86 899 86 893 q 94 946 86 923 q 125 997 104 974 q 175 1035 146 1020 q 239 1054 204 1050 q 260 1056 250 1056 q 305 1049 284 1056 q 361 1023 336 1041 q 403 978 386 1005 q 423 921 419 952 q 423 908 423 915 q 414 861 423 885 q 384 809 404 832 q 335 772 364 786 q 271 753 306 757 q 248 752 259 752 q 204 758 225 752 q 147 785 172 766 q 106 829 122 803 q 86 887 90 855 "},"]":{"x_min":15.546875,"x_max":756.984375,"ha":808,"o":"m 15 -78 q 27 -35 15 -56 q 62 -1 38 -18 q 133 23 86 16 q 251 33 181 29 q 386 42 322 37 q 382 77 383 57 q 379 117 381 97 q 373 264 375 181 q 371 437 371 348 q 373 615 371 525 q 377 781 375 705 q 381 916 379 858 q 386 1000 384 973 q 318 996 354 997 q 250 996 283 995 q 188 998 216 997 q 145 1000 161 999 q 73 1019 97 1003 q 37 1053 48 1036 q 26 1101 25 1074 q 38 1152 26 1127 q 74 1193 49 1173 q 147 1223 98 1213 q 372 1243 273 1246 q 529 1227 470 1240 q 597 1201 567 1218 q 650 1159 628 1183 q 688 1111 673 1136 q 715 1059 704 1086 q 744 926 740 998 q 751 841 748 894 q 755 726 754 789 q 756 592 756 663 l 756 452 q 751 105 755 289 q 750 45 754 76 q 736 -13 747 19 q 706 -77 726 -46 q 690 -99 702 -86 q 661 -123 677 -111 q 626 -145 644 -135 q 592 -160 608 -155 q 489 -182 548 -173 q 366 -192 430 -190 q 239 -190 302 -195 q 124 -175 176 -186 q 57 -149 80 -165 q 25 -117 34 -132 q 15 -78 14 -99 "},"m":{"x_min":53.578125,"x_max":1325.359375,"ha":1380,"o":"m 59 155 q 53 279 53 220 q 59 393 53 339 q 76 486 65 439 q 106 574 87 533 q 155 646 126 615 q 229 695 185 678 q 364 723 303 723 q 370 723 366 723 q 482 700 433 721 q 568 645 531 679 q 629 576 604 611 q 667 508 654 541 q 685 461 680 476 q 702 507 689 477 q 738 572 715 538 q 797 638 762 606 q 880 692 832 671 q 990 716 929 713 q 1005 716 997 717 q 1129 694 1061 716 q 1215 645 1180 677 q 1272 572 1249 614 q 1306 482 1294 530 q 1322 387 1318 434 q 1325 311 1325 350 q 1312 146 1325 232 q 1276 62 1300 98 q 1220 5 1255 30 q 1129 -19 1186 -19 q 1040 1 1076 -19 q 980 53 1004 22 q 943 121 956 85 q 924 191 930 158 q 917 249 918 225 q 916 279 916 273 q 913 249 916 274 q 902 190 910 224 q 879 119 894 156 q 839 50 865 82 q 775 -2 813 18 q 685 -23 737 -23 q 593 -1 632 -23 q 529 51 555 19 q 486 122 502 83 q 462 194 470 160 q 450 254 454 229 q 446 285 446 279 q 445 254 446 279 q 438 196 444 229 q 420 124 433 163 q 386 54 408 86 q 329 1 364 22 q 248 -19 295 -19 q 147 7 185 -19 q 90 68 109 34 q 59 155 66 105 "},"ﬃ":{"x_min":45,"x_max":2281.171875,"ha":2321,"o":"m 1838 255 q 1836 318 1836 287 q 1841 401 1836 362 q 1866 551 1847 478 q 1915 648 1883 615 q 1980 695 1948 680 q 2059 714 2017 712 q 2072 714 2066 714 q 2162 692 2127 714 q 2224 636 2201 668 q 2263 550 2250 600 q 2278 442 2273 503 q 2281 362 2281 407 q 2280 314 2281 340 q 2262 140 2278 238 q 2219 45 2251 78 q 2154 -2 2187 12 q 2068 -21 2114 -19 q 2053 -21 2060 -21 q 1971 -4 2003 -21 q 1912 37 1934 14 q 1871 99 1886 63 q 1838 255 1843 174 m 1867 887 q 1867 899 1867 893 q 1875 946 1867 923 q 1906 997 1885 974 q 1956 1035 1927 1020 q 2020 1054 1985 1050 q 2041 1056 2031 1056 q 2086 1049 2065 1056 q 2142 1023 2117 1041 q 2184 978 2167 1005 q 2204 921 2200 952 q 2204 908 2204 915 q 2195 861 2204 885 q 2165 809 2185 832 q 2116 772 2145 786 q 2052 753 2087 757 q 2029 752 2040 752 q 1985 758 2006 752 q 1928 785 1953 766 q 1887 829 1903 803 q 1867 887 1871 855 m 936 611 q 954 672 936 649 q 1005 708 975 697 q 1070 720 1036 719 q 1078 720 1075 720 q 1132 715 1108 720 q 1131 741 1131 728 q 1134 796 1131 767 q 1156 876 1140 832 q 1208 965 1173 921 q 1302 1036 1246 1009 q 1427 1067 1352 1059 q 1464 1070 1444 1070 q 1610 1048 1528 1070 q 1666 1020 1641 1037 q 1702 981 1687 1004 q 1714 935 1714 962 q 1713 921 1714 928 q 1701 876 1711 895 q 1672 846 1691 859 q 1625 835 1655 834 q 1618 835 1621 835 q 1584 829 1599 835 q 1556 815 1570 825 q 1535 786 1542 805 q 1531 768 1532 779 q 1528 729 1528 753 q 1528 713 1528 721 q 1615 726 1575 726 q 1628 725 1621 726 q 1698 700 1665 722 q 1733 623 1730 679 q 1733 617 1733 620 q 1708 541 1733 564 q 1648 508 1681 516 q 1599 502 1626 502 q 1559 504 1580 502 q 1572 333 1572 412 q 1568 244 1572 287 q 1551 149 1563 196 q 1515 64 1538 102 q 1456 3 1492 27 q 1367 -21 1419 -20 q 1348 -21 1357 -22 q 1227 9 1271 -21 q 1156 114 1178 44 q 1132 282 1134 183 q 1130 387 1130 332 q 1132 504 1130 442 q 1060 493 1093 493 q 1037 495 1048 493 q 1002 503 1019 496 q 970 522 984 510 q 946 555 955 535 q 936 611 936 579 m 45 611 q 63 672 45 649 q 114 708 84 697 q 179 720 145 719 q 187 720 184 720 q 241 715 217 720 q 240 741 240 728 q 243 796 240 767 q 265 876 249 832 q 317 965 282 921 q 411 1036 355 1009 q 536 1067 461 1059 q 573 1070 553 1070 q 719 1048 637 1070 q 775 1020 750 1037 q 811 981 796 1004 q 823 935 823 962 q 822 921 823 928 q 810 876 820 895 q 781 846 800 859 q 734 835 764 834 q 727 835 730 835 q 693 829 708 835 q 665 815 679 825 q 644 786 651 805 q 640 768 641 779 q 637 729 637 753 q 637 713 637 721 q 724 726 684 726 q 737 725 730 726 q 807 700 774 722 q 842 623 839 679 q 842 617 842 620 q 817 541 842 564 q 757 508 790 516 q 708 502 735 502 q 668 504 689 502 q 681 333 681 412 q 677 244 681 287 q 660 149 672 196 q 624 64 647 102 q 565 3 601 27 q 476 -21 528 -20 q 457 -21 466 -22 q 336 9 380 -21 q 265 114 287 44 q 241 282 243 183 q 239 387 239 332 q 241 504 239 442 q 169 493 202 493 q 146 495 157 493 q 111 503 128 496 q 79 522 93 510 q 55 555 64 535 q 45 611 45 579 "},"8":{"x_min":55.546875,"x_max":814.734375,"ha":868,"o":"m 55 297 q 88 454 55 387 q 191 561 120 521 q 135 639 153 595 q 119 733 117 683 q 143 840 119 792 q 207 920 166 887 q 304 969 248 952 q 427 986 360 986 q 548 969 493 986 q 645 920 604 952 q 709 841 686 889 q 731 733 731 794 q 669 559 731 617 q 779 447 744 514 q 814 297 814 379 q 786 157 814 218 q 707 57 758 97 q 587 -3 657 17 q 434 -24 518 -24 q 281 -3 351 -24 q 162 57 212 17 q 84 157 112 97 q 55 297 55 218 m 383 321 q 400 280 385 291 q 438 269 415 269 q 477 283 462 269 q 493 321 493 297 q 479 361 493 343 q 438 379 465 379 q 397 361 415 379 q 383 321 380 343 m 383 687 q 400 647 385 658 q 438 636 415 636 q 477 650 462 636 q 493 687 493 664 q 479 728 493 710 q 438 746 465 746 q 397 728 415 746 q 383 687 380 710 "},"R":{"x_min":49,"x_max":928.046875,"ha":954,"o":"m 51 378 q 49 463 49 423 q 53 554 49 512 q 83 711 61 640 q 122 809 97 768 q 178 882 147 851 q 244 932 209 912 q 312 962 279 951 q 457 985 381 985 q 482 984 469 985 q 591 972 543 984 q 678 942 640 961 q 745 900 716 923 q 792 852 773 877 q 858 721 838 795 q 866 638 866 676 q 862 587 866 611 q 837 489 852 529 q 789 407 817 441 q 869 324 839 364 q 913 250 899 285 q 928 179 928 213 q 923 131 928 153 q 855 25 907 72 q 777 -14 815 -6 q 743 -18 760 -18 q 706 -12 724 -18 q 643 18 673 -3 q 588 70 613 41 q 482 245 530 137 q 486 186 486 213 q 486 165 486 175 q 473 104 483 131 q 449 59 463 78 q 419 28 436 40 q 327 -10 381 -2 q 291 -13 308 -13 q 212 5 246 -13 q 140 64 166 30 q 93 155 108 102 q 51 378 57 278 m 443 526 q 482 515 458 515 q 520 529 505 515 q 536 567 536 543 q 522 607 536 589 q 482 625 508 625 q 440 607 458 625 q 426 573 426 591 q 443 526 426 540 "}," ":{"x_min":0,"x_max":0,"ha":248},"o":{"x_min":29.15625,"x_max":792.84375,"ha":814,"o":"m 29 326 q 46 466 29 407 q 92 567 63 525 q 157 638 120 610 q 231 682 194 665 q 413 717 311 718 q 434 717 423 717 q 552 702 501 717 q 642 661 604 686 q 706 605 680 636 q 748 541 731 574 q 792 366 787 464 q 781 250 792 300 q 750 161 769 200 q 697 91 727 121 q 640 41 668 61 q 575 4 608 18 q 521 -12 547 -6 q 476 -21 495 -19 q 434 -26 452 -26 q 300 -10 358 -26 q 199 28 242 4 q 126 85 156 53 q 79 150 96 117 q 29 326 33 227 m 387 282 q 426 271 402 271 q 465 285 450 271 q 480 322 480 298 q 466 363 480 345 q 426 381 453 381 q 385 363 402 381 q 370 328 370 347 q 387 282 370 296 "},"5":{"x_min":54.578125,"x_max":777.21875,"ha":821,"o":"m 61 278 q 108 344 79 328 q 165 360 137 360 q 234 344 198 360 q 307 320 280 320 q 347 328 333 319 q 366 362 362 339 q 359 407 373 389 q 324 438 345 426 q 266 462 299 454 q 186 496 221 478 q 127 544 151 514 q 90 620 103 575 q 80 734 78 665 q 104 839 83 798 q 152 904 126 880 q 221 947 183 931 q 318 971 265 965 q 415 975 370 976 q 518 965 467 973 q 637 924 597 952 q 694 868 677 895 q 712 797 714 834 q 699 739 712 764 q 666 697 686 715 q 619 668 645 678 q 567 651 592 657 q 422 638 503 636 q 568 611 510 633 q 662 565 626 590 q 726 499 704 536 q 775 360 771 427 q 768 240 780 293 q 720 123 752 177 q 666 63 697 87 q 598 24 634 38 q 524 2 562 9 q 448 -6 486 -5 q 266 5 362 -12 q 179 38 215 18 q 120 80 144 58 q 82 125 95 103 q 62 170 69 148 q 61 278 47 222 "},"7":{"x_min":53.875,"x_max":778,"ha":833,"o":"m 54 756 q 67 848 51 809 q 110 912 83 886 q 172 955 137 938 q 245 982 208 972 q 445 996 331 1004 q 589 971 533 992 q 680 925 645 950 q 741 859 719 895 q 773 775 765 824 q 776 670 780 726 q 758 554 772 613 q 726 438 744 495 q 613 160 683 305 q 577 91 596 120 q 536 43 558 62 q 491 13 514 25 q 448 -1 469 2 q 347 1 400 -12 q 269 48 294 18 q 236 107 245 78 q 229 179 225 141 q 263 341 234 258 q 324 491 293 423 q 409 645 362 571 q 234 622 311 620 q 169 628 201 622 q 112 650 137 634 q 71 691 87 665 q 54 756 55 716 "},"K":{"x_min":52.21875,"x_max":968.5,"ha":1017,"o":"m 52 511 q 70 710 54 602 q 124 873 87 817 q 200 956 161 930 q 295 990 244 987 q 309 990 303 990 q 388 982 355 990 q 453 956 427 973 q 495 917 479 939 q 519 873 511 895 q 531 798 531 838 q 527 751 531 775 q 544 801 531 776 q 572 849 555 823 q 619 899 590 874 q 717 950 670 944 q 747 952 733 952 q 798 944 775 952 q 873 899 838 931 q 918 833 905 866 q 930 773 931 803 q 917 701 930 737 q 889 642 906 670 q 775 518 849 577 q 879 389 840 447 q 940 282 919 330 q 965 197 961 234 q 968 159 968 177 q 966 131 968 144 q 897 26 955 64 q 806 -9 848 -2 q 770 -12 788 -11 q 726 -7 747 -12 q 657 22 689 1 q 600 69 626 43 q 493 228 539 130 q 494 196 494 211 q 484 125 494 157 q 439 47 472 85 q 335 -3 405 9 q 290 -9 311 -8 q 263 -6 276 -9 q 206 12 231 0 q 163 45 181 25 q 130 86 144 65 q 80 205 97 136 q 58 351 65 272 q 52 481 52 408 q 52 511 52 495 "},",":{"x_min":29.15625,"x_max":378.546875,"ha":452,"o":"m 29 153 q 73 276 29 225 q 202 327 118 327 q 330 279 286 327 q 377 162 375 231 q 373 49 380 97 q 352 -31 366 1 q 318 -86 337 -65 q 279 -120 299 -108 q 168 -143 231 -149 q 141 -131 148 -140 q 132 -113 134 -123 q 133 -90 129 -103 q 153 -66 139 -72 q 168 -64 159 -64 q 189 -49 187 -64 q 190 -21 191 -34 q 70 33 111 -15 q 29 153 29 83 "},"d":{"x_min":56.296875,"x_max":1004.796875,"ha":1047,"o":"m 57 296 q 56 327 56 312 q 62 402 56 365 q 92 507 70 457 q 156 597 115 558 q 290 676 220 657 q 421 696 360 696 q 556 674 490 694 q 548 788 548 735 q 552 861 548 827 q 568 930 556 896 q 599 990 579 964 q 650 1033 619 1017 q 726 1049 682 1049 q 795 1037 765 1049 q 850 1008 826 1026 q 890 967 873 990 q 919 921 908 945 q 954 793 946 865 q 962 634 962 716 q 953 477 962 564 q 921 302 944 390 q 981 249 961 282 q 1004 179 1001 216 q 1004 165 1005 172 q 994 105 1004 135 q 956 41 982 68 q 879 -1 921 4 q 843 -4 861 -4 q 803 0 822 -4 q 743 19 767 7 l 719 32 q 599 -10 665 4 q 467 -28 534 -26 q 440 -29 453 -29 q 336 -20 387 -29 q 222 17 272 -9 q 160 62 189 36 q 109 120 134 86 q 71 201 83 154 q 57 296 61 244 m 512 287 q 550 276 526 276 q 589 290 573 276 q 604 327 604 304 q 590 368 604 350 q 550 386 576 386 q 509 368 526 386 q 494 333 494 352 q 512 287 494 301 "},"E":{"x_min":50.1875,"x_max":868.125,"ha":928,"o":"m 50 382 q 50 436 50 409 q 54 568 50 506 q 73 762 59 666 q 103 845 82 809 q 154 905 124 880 q 220 946 184 930 q 291 971 255 962 q 442 988 360 988 q 476 987 459 988 q 611 976 554 984 q 711 954 669 967 q 781 926 754 942 q 826 894 809 910 q 865 814 865 858 q 850 739 865 769 q 809 688 834 709 q 751 655 784 667 q 683 636 718 642 q 551 624 623 624 q 497 626 524 624 q 616 588 576 612 q 672 540 657 563 q 687 488 687 516 q 687 479 687 484 q 663 407 687 434 q 612 364 640 380 q 537 335 579 344 q 558 335 548 335 q 651 329 611 335 q 735 309 700 322 q 794 281 771 297 q 833 249 817 265 q 868 158 868 210 q 848 101 865 125 q 806 58 832 77 q 747 28 780 40 q 680 8 714 17 q 499 -10 601 -9 q 463 -11 480 -11 q 365 -4 409 -11 q 262 17 307 3 q 186 48 218 31 q 133 86 153 66 q 70 190 83 132 q 50 382 52 282 "},"Y":{"x_min":61.609375,"x_max":1002.171875,"ha":1070,"o":"m 63 836 q 81 898 69 871 q 111 944 94 925 q 148 977 129 964 q 255 1015 194 1007 q 275 1016 265 1016 q 340 1009 309 1016 q 406 981 376 999 q 457 941 435 964 q 497 893 480 918 q 559 760 537 836 q 631 918 588 865 q 718 989 675 970 q 797 1007 757 1007 q 821 1006 808 1007 q 894 987 864 1000 q 944 954 924 973 q 976 913 964 935 q 994 868 987 891 q 1002 806 1001 839 q 997 752 1002 779 q 937 619 979 675 q 854 526 896 562 q 746 454 804 484 q 770 310 770 375 q 770 297 770 303 q 755 179 767 228 q 715 78 741 122 q 648 15 685 33 q 559 -3 610 -3 q 487 6 518 -3 q 437 28 457 16 q 399 60 414 41 q 364 114 378 85 q 343 175 350 143 q 332 239 335 207 q 330 301 330 272 q 344 444 330 370 q 215 521 274 475 q 165 565 189 541 q 121 618 141 589 q 85 681 100 647 q 65 754 70 716 q 61 802 61 780 q 63 836 61 820 "},"\"":{"x_min":45.65625,"x_max":561.5,"ha":622,"o":"m 51 833 q 46 911 45 869 q 57 991 47 954 q 84 1041 67 1024 q 122 1064 102 1058 q 162 1069 142 1070 q 198 1062 182 1068 q 223 1049 210 1057 q 248 1028 236 1041 q 267 995 259 1016 q 278 941 276 975 q 278 887 280 918 q 269 827 276 857 q 255 770 263 797 q 239 727 248 744 q 217 695 231 709 q 189 673 207 683 q 148 665 171 663 q 107 679 122 666 q 82 707 91 692 q 67 748 72 726 q 51 833 56 789 m 333 833 q 328 911 327 869 q 340 991 329 954 q 367 1041 350 1024 q 404 1064 384 1058 q 445 1069 425 1070 q 480 1062 465 1067 q 506 1049 493 1057 q 530 1028 519 1041 q 550 995 541 1016 q 560 941 558 975 q 560 887 562 918 q 552 827 558 857 q 538 770 546 797 q 522 727 530 744 q 499 695 514 709 q 471 673 489 683 q 430 665 454 663 q 389 679 405 666 q 365 707 373 692 q 350 748 354 726 q 333 833 339 789 "},"´":{"x_min":37.28125,"x_max":424.953125,"ha":475,"o":"m 48 818 q 38 858 37 839 q 47 893 40 877 q 67 926 54 910 q 100 959 78 940 q 147 995 122 978 q 199 1027 172 1013 q 248 1049 226 1042 q 302 1060 279 1058 q 340 1056 324 1062 q 368 1042 356 1051 q 392 1023 380 1034 q 412 995 402 1013 q 424 956 422 977 q 418 912 426 934 q 383 867 409 889 q 315 824 354 840 q 240 797 276 808 q 156 778 198 785 q 113 775 134 772 q 77 786 95 778 q 48 818 59 794 "}," ":{"x_min":0,"x_max":0,"ha":414},"|":{"x_min":45.390625,"x_max":307.890625,"ha":358,"o":"m 53 10 q 45 276 46 137 q 47 544 44 415 q 55 780 50 673 q 66 950 59 887 q 90 1025 71 999 q 128 1062 108 1051 q 181 1076 152 1076 q 237 1060 212 1074 q 277 1021 258 1047 q 298 947 295 995 q 307 579 309 748 q 298 283 305 409 q 278 10 291 136 q 253 -49 271 -29 q 215 -78 234 -69 q 165 -87 191 -87 q 111 -80 136 -90 q 73 -52 90 -72 q 53 10 55 -31 "}," ":{"x_min":0,"x_max":0,"ha":248}," ":{"x_min":0,"x_max":0,"ha":1243},"b":{"x_min":33,"x_max":887.125,"ha":944,"o":"m 33 570 q 56 839 34 699 q 95 957 67 905 q 124 999 107 979 q 163 1035 141 1019 q 214 1058 185 1050 q 260 1064 235 1064 q 279 1063 269 1064 q 354 1040 323 1059 q 403 992 384 1021 q 433 929 423 964 q 445 860 442 895 q 447 815 447 838 q 433 674 447 750 q 563 702 496 700 q 623 697 590 702 q 687 680 655 693 q 752 645 720 667 q 817 587 785 623 q 863 505 846 554 q 885 403 881 456 q 887 366 887 385 q 882 296 887 331 q 855 201 874 243 q 802 117 831 150 q 746 64 773 83 q 685 28 716 40 q 523 -13 606 -7 q 485 -14 504 -14 q 367 0 423 -14 q 231 54 292 17 q 133 139 170 90 q 81 231 101 179 q 50 339 62 282 q 36 455 39 396 q 33 570 33 514 m 429 302 q 467 292 444 292 q 506 306 491 292 q 522 343 522 319 q 508 384 522 366 q 467 402 494 402 q 427 383 444 402 q 412 349 412 368 q 429 302 412 316 "},"q":{"x_min":60.859375,"x_max":996.171875,"ha":982,"o":"m 61 374 q 80 479 64 431 q 126 570 97 532 q 182 635 155 608 q 252 688 216 665 q 423 739 330 728 q 503 744 463 744 q 605 735 554 744 q 771 682 695 720 q 889 586 846 644 q 939 491 918 545 q 971 380 959 437 q 988 262 983 322 q 995 147 994 203 q 996 112 996 129 q 979 -123 996 -3 q 939 -231 968 -184 q 867 -305 914 -271 q 740 -338 820 -338 q 667 -322 698 -338 q 616 -280 636 -306 q 583 -220 596 -254 q 564 -152 571 -186 q 556 -43 556 -102 q 559 34 556 -6 q 433 -3 499 4 q 382 -7 409 -7 q 373 -7 377 -7 q 307 1 341 -6 q 238 25 273 8 q 170 69 204 41 q 104 153 129 102 q 68 260 79 204 q 60 345 60 302 q 61 374 60 359 m 463 282 q 501 270 478 271 q 540 284 525 270 q 556 322 556 298 q 542 362 556 344 q 501 380 528 380 q 461 362 478 380 q 446 328 446 347 q 463 282 446 295 "},"ﬂ":{"x_min":45,"x_max":1378.890625,"ha":1437,"o":"m 945 281 q 936 446 936 359 q 939 608 936 533 q 951 778 943 694 q 983 915 959 854 q 1010 965 994 941 q 1047 1010 1025 990 q 1097 1041 1068 1029 q 1162 1053 1126 1053 q 1257 1019 1214 1051 q 1294 985 1275 1006 q 1328 932 1313 964 q 1355 857 1343 900 q 1370 757 1366 814 q 1378 544 1378 645 q 1376 364 1378 443 q 1364 190 1372 271 q 1333 83 1357 129 q 1307 44 1323 63 q 1269 10 1291 25 q 1218 -12 1247 -3 q 1161 -19 1192 -19 q 1150 -19 1155 -19 q 1088 -4 1115 -18 q 1038 29 1060 8 q 1002 77 1017 50 q 977 132 987 104 q 945 281 953 197 m 45 611 q 63 672 45 649 q 114 708 84 697 q 179 720 145 719 q 187 720 184 720 q 241 715 217 720 q 240 741 240 728 q 243 796 240 767 q 265 876 249 832 q 317 965 282 921 q 411 1036 355 1009 q 536 1067 461 1059 q 573 1070 553 1070 q 719 1048 637 1070 q 775 1020 750 1037 q 811 981 796 1004 q 823 935 823 962 q 822 921 823 928 q 810 876 820 895 q 781 846 800 859 q 734 835 764 834 q 727 835 730 835 q 693 829 708 835 q 665 815 679 825 q 644 786 651 805 q 640 768 641 779 q 637 729 637 753 q 637 713 637 721 q 724 726 684 726 q 737 725 730 726 q 807 700 774 722 q 842 623 839 679 q 842 617 842 620 q 817 541 842 564 q 757 508 790 516 q 708 502 735 502 q 668 504 689 502 q 681 333 681 412 q 677 244 681 287 q 660 149 672 196 q 624 64 647 102 q 565 3 601 27 q 476 -21 528 -20 q 457 -21 466 -22 q 336 9 380 -21 q 265 114 287 44 q 241 282 243 183 q 239 387 239 332 q 241 504 239 442 q 169 493 202 493 q 146 495 157 493 q 111 503 128 496 q 79 522 93 510 q 55 555 64 535 q 45 611 45 579 "},"z":{"x_min":38,"x_max":789.203125,"ha":834,"o":"m 38 603 q 79 691 41 653 q 121 724 96 708 q 185 750 147 739 q 276 769 223 762 q 373 774 320 774 q 398 774 385 774 q 556 757 493 771 q 656 720 619 743 q 707 664 694 697 q 716 619 716 643 q 714 592 716 606 q 685 519 706 558 q 634 442 666 486 q 546 351 601 398 q 666 331 612 350 q 711 310 689 323 q 751 278 733 297 q 779 232 768 259 q 789 171 789 205 q 757 61 789 100 q 674 5 725 22 q 562 -15 624 -12 q 440 -19 500 -19 q 321 -17 380 -19 q 213 -3 262 -15 q 128 33 164 8 q 79 104 91 58 q 73 156 73 131 q 73 169 73 162 q 85 228 75 200 q 112 282 96 257 q 147 330 129 308 q 250 425 190 382 q 241 425 245 425 q 140 441 184 425 q 100 462 119 449 q 67 493 82 474 q 44 540 52 512 q 38 585 38 560 q 38 603 38 594 "},"™":{"x_min":50,"x_max":2336.015625,"ha":2393,"o":"m 1063 284 q 1079 491 1063 397 q 1114 653 1095 584 q 1167 796 1138 732 q 1253 920 1203 879 q 1347 978 1303 961 q 1441 995 1393 995 q 1455 994 1448 995 q 1539 981 1502 994 q 1602 947 1575 967 q 1646 899 1628 926 q 1676 844 1664 872 q 1705 694 1702 777 q 1746 845 1714 779 q 1779 900 1760 873 q 1826 949 1799 927 q 1887 984 1852 971 q 1966 997 1921 997 q 2084 963 2034 997 q 2169 890 2135 930 q 2235 784 2207 844 q 2293 610 2272 697 q 2323 453 2313 523 q 2335 293 2333 369 q 2336 275 2335 284 q 2329 190 2336 228 q 2307 114 2321 145 q 2275 60 2293 82 q 2235 25 2256 38 q 2127 -8 2188 -6 q 2032 10 2072 -8 q 1961 60 1991 29 q 1911 131 1931 91 q 1878 212 1891 171 q 1847 433 1848 309 q 1818 309 1840 351 q 1773 251 1796 268 q 1719 233 1748 233 q 1712 233 1715 233 q 1627 264 1657 233 q 1581 335 1596 295 q 1559 436 1562 379 q 1548 287 1559 351 q 1521 175 1538 222 q 1483 97 1505 128 q 1439 44 1461 65 q 1320 -8 1386 -2 q 1229 4 1267 -8 q 1163 37 1191 17 q 1117 83 1135 57 q 1088 137 1099 110 q 1063 284 1063 202 m 50 759 q 78 869 50 828 q 141 931 106 910 q 232 965 181 956 q 448 992 343 988 q 526 993 489 993 q 638 990 586 993 q 827 969 736 984 q 923 926 891 956 q 972 866 956 897 q 988 790 989 830 q 975 713 987 745 q 944 659 963 682 q 902 622 926 636 q 855 600 878 608 q 761 586 813 586 q 728 587 745 586 q 749 400 747 481 q 750 349 750 373 q 747 262 750 300 q 728 148 741 196 q 683 50 715 82 q 619 2 652 18 q 538 -13 581 -14 q 530 -14 534 -13 q 447 0 485 -14 q 377 47 411 13 q 327 148 343 80 q 310 295 312 219 q 310 343 310 320 q 312 433 310 391 q 327 576 318 507 q 289 575 308 575 q 188 587 234 575 q 137 607 162 594 q 93 640 112 620 q 61 690 73 661 q 50 759 50 719 "},"~":{"x_min":44.53125,"x_max":613.796875,"ha":688,"o":"m 55 269 q 45 307 47 287 q 50 344 42 326 q 122 455 75 420 q 170 480 143 471 q 232 485 197 489 q 312 460 267 481 q 411 399 356 440 q 412 396 412 397 q 413 393 412 394 q 459 456 427 433 q 534 465 491 479 q 590 430 569 453 q 613 378 608 411 q 590 297 617 346 q 542 240 569 260 q 489 214 516 221 q 432 211 461 207 q 377 225 404 215 q 250 302 315 249 q 215 237 238 255 q 168 214 191 218 q 111 218 141 208 q 78 238 92 224 q 55 269 63 251 "},"[":{"x_min":83,"x_max":824.8125,"ha":857,"o":"m 83 437 l 83 577 q 88 924 84 740 q 89 984 85 953 q 102 1042 92 1010 q 133 1106 112 1074 q 149 1128 137 1115 q 178 1152 162 1141 q 213 1175 195 1164 q 247 1189 231 1185 q 350 1211 291 1203 q 473 1222 409 1220 q 599 1220 537 1224 q 714 1205 662 1216 q 782 1179 759 1196 q 814 1147 805 1162 q 824 1108 825 1129 q 811 1065 824 1084 q 777 1030 801 1047 q 706 1007 753 1013 q 588 995 658 1000 q 453 987 517 991 q 457 951 456 971 q 460 912 457 931 q 466 765 464 849 q 468 592 468 682 q 466 414 468 503 q 462 248 464 324 q 457 114 460 171 q 453 29 455 56 q 520 33 484 32 q 589 33 556 34 q 650 31 623 32 q 693 29 678 31 q 766 9 742 25 q 802 -24 790 -6 q 813 -71 814 -45 q 801 -122 813 -97 q 765 -163 790 -143 q 692 -193 741 -183 q 467 -213 566 -217 q 310 -197 369 -210 q 240 -172 270 -189 q 188 -131 210 -154 q 150 -82 166 -108 q 124 -29 134 -56 q 95 104 99 31 q 88 186 91 134 q 84 302 85 238 q 83 437 83 366 "},"L":{"x_min":47,"x_max":847.421875,"ha":904,"o":"m 48 579 q 65 758 52 668 q 114 894 80 847 q 185 961 148 942 q 273 985 225 985 q 279 985 276 985 q 367 961 330 985 q 429 896 405 937 q 466 802 454 856 q 483 693 479 748 q 487 605 486 651 q 471 394 487 508 q 580 439 531 426 q 658 450 624 450 q 666 450 662 450 q 732 435 703 449 q 780 404 760 422 q 845 286 826 361 q 847 257 847 276 q 847 247 847 252 q 836 188 846 221 q 803 120 825 155 q 737 57 780 86 q 630 8 695 28 q 471 -15 564 -11 q 447 -15 459 -16 q 360 -6 399 -15 q 271 22 310 4 q 202 66 232 41 q 151 118 172 91 q 79 258 101 179 q 50 415 55 329 q 47 512 47 465 q 48 579 47 546 "}," ":{"x_min":0,"x_max":0,"ha":594},"%":{"x_min":49.59375,"x_max":929.078125,"ha":1032,"o":"m 52 773 q 77 844 59 811 q 124 900 95 877 q 190 932 152 923 q 278 933 229 942 q 355 903 324 925 q 405 852 387 881 q 428 787 423 823 q 426 714 433 751 q 396 636 418 666 q 342 588 373 605 q 274 567 311 571 q 200 571 237 563 q 81 641 123 586 q 52 773 39 695 m 223 61 q 206 101 212 77 q 212 162 201 125 q 252 264 224 203 q 318 395 280 326 l 397 539 l 474 680 l 542 803 q 596 889 575 858 q 645 937 620 925 q 694 950 671 950 q 744 937 719 950 q 777 914 765 930 q 793 872 788 898 q 781 805 797 847 q 667 558 737 684 q 537 321 598 432 q 379 75 460 195 q 336 36 358 46 q 295 25 314 25 q 255 35 274 25 q 223 61 236 44 m 551 223 q 576 294 558 261 q 623 350 594 327 q 689 383 651 373 q 776 384 727 393 q 854 355 822 376 q 904 304 886 333 q 927 239 922 275 q 925 165 931 202 q 894 86 916 118 q 840 38 872 55 q 772 17 809 22 q 698 21 735 13 q 630 46 659 27 q 579 91 600 65 q 552 152 559 118 q 551 223 544 186 "},"P":{"x_min":78.671875,"x_max":963.078125,"ha":1023,"o":"m 80 405 q 78 455 79 431 q 86 580 78 524 q 120 746 96 668 q 167 839 139 800 q 228 907 196 879 q 297 953 261 936 q 368 982 333 971 q 508 1002 435 1002 q 541 1001 524 1002 q 678 982 619 999 q 781 939 737 965 q 855 882 825 914 q 906 816 886 849 q 962 643 952 740 q 963 622 963 632 q 948 510 963 558 q 902 414 931 454 q 835 350 873 375 q 756 311 797 324 q 587 282 680 283 q 541 284 564 282 q 552 194 552 233 q 544 126 552 155 q 522 77 536 97 q 491 42 508 57 q 396 4 453 10 q 360 2 377 2 q 259 25 301 2 q 173 93 205 54 q 115 198 136 139 q 80 405 83 307 m 500 572 q 539 560 515 561 q 577 574 562 560 q 592 612 592 588 q 579 652 592 634 q 539 670 565 670 q 497 653 515 670 q 482 618 482 637 q 500 572 482 585 "},"_":{"x_min":84.328125,"x_max":898.8125,"ha":952,"o":"m 84 78 q 95 133 82 108 q 133 176 106 156 q 216 205 161 197 q 415 220 316 219 q 594 219 515 222 q 773 205 687 215 q 848 182 822 200 q 885 145 873 165 q 898 95 898 122 q 890 42 900 67 q 862 2 882 21 q 800 -23 841 -16 q 675 -36 747 -31 q 522 -42 602 -41 q 361 -41 442 -44 q 212 -33 280 -38 q 137 -11 163 -29 q 99 26 111 6 q 84 78 86 50 "},"+":{"x_min":60.90625,"x_max":800.421875,"ha":858,"o":"m 61 478 q 71 533 62 507 q 98 579 80 556 q 151 617 116 602 q 198 633 170 627 q 255 645 225 640 q 261 691 258 669 q 270 731 265 712 q 304 800 281 776 q 351 836 327 825 q 411 851 379 849 q 479 840 446 852 q 533 805 507 829 q 571 731 559 780 l 579 693 q 585 654 583 673 q 680 637 641 647 q 750 603 725 626 q 786 556 775 580 q 800 497 799 529 q 788 429 801 461 q 753 375 777 401 q 680 337 729 348 l 641 328 q 602 322 621 324 q 594 255 598 277 q 590 231 592 242 q 556 158 583 183 q 502 122 530 133 q 430 111 469 109 q 375 122 401 112 q 328 148 351 130 q 290 201 305 166 q 274 248 280 222 q 262 307 267 275 q 227 309 242 308 q 201 314 212 311 l 180 318 q 107 351 131 324 q 71 405 83 377 q 61 478 59 439 "},"‑":{"x_min":66,"x_max":675.515625,"ha":730,"o":"m 66 397 q 76 465 63 433 q 113 519 87 493 q 194 558 139 546 q 329 575 265 573 q 441 575 393 578 q 548 561 498 571 q 622 525 596 548 q 659 478 648 501 q 674 419 673 450 q 669 355 677 384 q 640 304 662 329 q 575 266 619 279 q 383 239 472 239 q 196 254 294 239 q 120 285 147 261 q 82 333 92 308 q 66 397 66 363 "},"'":{"x_min":41.640625,"x_max":276.125,"ha":311,"o":"m 47 833 q 42 911 41 869 q 54 991 43 954 q 81 1041 64 1024 q 118 1064 98 1058 q 159 1069 139 1070 q 194 1062 179 1068 q 220 1049 207 1057 q 244 1028 233 1041 q 264 995 255 1016 q 275 941 272 975 q 274 887 276 918 q 266 827 272 857 q 252 770 260 797 q 236 727 244 744 q 213 695 228 709 q 185 673 203 683 q 144 665 168 663 q 103 679 119 666 q 79 707 87 692 q 64 748 68 726 q 47 833 53 789 "}," ":{"x_min":0,"x_max":0,"ha":1243},"T":{"x_min":50,"x_max":988.6875,"ha":1019,"o":"m 50 759 q 78 869 50 828 q 141 931 106 910 q 232 965 181 956 q 448 992 343 988 q 526 993 489 993 q 638 990 586 993 q 827 969 736 984 q 923 926 891 956 q 972 866 956 897 q 988 790 989 830 q 975 713 987 745 q 944 659 963 682 q 902 622 926 636 q 855 600 878 608 q 761 586 813 586 q 728 587 745 586 q 749 400 747 481 q 750 349 750 373 q 747 262 750 300 q 728 148 741 196 q 683 50 715 82 q 619 2 652 18 q 538 -13 581 -14 q 530 -14 534 -13 q 447 0 485 -14 q 377 47 411 13 q 327 148 343 80 q 310 295 312 219 q 310 343 310 320 q 312 433 310 391 q 327 576 318 507 q 289 575 308 575 q 188 587 234 575 q 137 607 162 594 q 93 640 112 620 q 61 690 73 661 q 50 759 50 719 "},"j":{"x_min":57.09375,"x_max":660.71875,"ha":713,"o":"m 58 -275 q 75 -327 59 -303 q 114 -368 87 -348 q 190 -396 140 -388 q 267 -402 229 -402 q 311 -400 289 -402 q 419 -377 362 -396 q 521 -315 476 -359 q 577 -243 555 -282 q 611 -172 598 -205 q 633 -95 626 -134 q 658 149 654 35 q 660 257 660 206 q 658 351 660 307 q 641 539 653 453 q 612 622 637 586 q 547 680 591 654 q 424 706 502 706 q 329 689 371 705 q 261 640 293 673 q 228 541 230 607 q 220 343 222 425 q 218 205 218 262 l 218 109 q 215 38 218 69 q 208 -52 215 -12 q 186 -117 201 -87 q 143 -151 172 -147 q 95 -172 115 -156 q 66 -209 78 -184 q 57 -255 57 -228 q 58 -275 57 -265 m 264 976 q 306 1023 280 1003 q 365 1054 331 1043 q 426 1063 393 1063 q 434 1063 430 1063 q 504 1048 472 1062 q 560 1011 536 1034 q 596 959 583 988 q 607 904 607 932 q 607 898 607 900 q 589 838 605 866 q 548 790 573 810 q 490 758 523 770 q 428 749 460 748 q 419 749 424 749 q 350 765 381 750 q 294 802 318 780 q 258 853 270 824 q 247 909 247 879 q 264 976 247 945 "},"1":{"x_min":30.28125,"x_max":640.28125,"ha":683,"o":"m 50 630 q 31 693 33 663 q 35 750 28 723 q 57 799 43 776 q 90 841 72 822 q 197 922 132 887 q 326 961 268 956 q 424 956 383 965 q 509 922 471 947 q 565 856 542 898 q 603 763 589 815 q 626 652 618 711 q 638 534 635 592 q 631 241 644 398 q 617 157 627 192 q 592 95 607 122 q 561 51 578 69 q 525 25 543 34 q 433 0 484 0 q 345 25 379 0 q 292 83 311 51 q 260 166 269 119 q 244 332 243 250 q 256 482 246 415 q 286 630 267 560 q 193 581 239 597 q 114 575 155 569 q 50 630 74 581 "}," ":{"x_min":0,"x_max":0,"ha":309}," ":{"x_min":0,"x_max":0,"ha":207},"<":{"x_min":47.46875,"x_max":590.953125,"ha":658,"o":"m 47 505 q 68 592 47 548 q 120 676 88 636 q 190 751 152 716 q 259 811 227 786 q 314 852 291 837 q 337 868 336 866 q 390 889 360 885 q 451 886 421 893 q 509 863 482 880 q 554 817 536 845 q 575 703 591 758 q 508 612 559 649 l 474 584 l 439 551 q 397 508 419 531 q 455 453 427 478 l 502 411 q 547 372 527 389 q 584 315 573 347 q 589 249 594 287 q 547 168 584 212 q 501 134 529 147 q 445 119 474 122 q 387 123 416 116 q 337 147 358 130 q 314 163 336 148 q 259 202 291 177 q 190 261 227 227 q 120 334 152 294 q 68 416 88 373 q 47 505 47 459 "},"£":{"x_min":54.03125,"x_max":919.84375,"ha":979,"o":"m 54 468 q 59 523 52 494 q 94 572 71 557 q 141 594 118 588 q 198 597 168 599 q 208 703 200 658 q 227 780 216 748 q 254 842 240 816 q 306 908 276 882 q 370 951 336 935 q 441 975 404 967 q 514 984 478 982 q 687 965 596 988 q 793 898 754 942 q 852 813 832 854 q 874 727 877 764 q 857 664 870 689 q 812 614 841 635 q 761 592 787 597 q 713 591 735 588 q 675 603 691 594 q 649 624 658 611 l 632 649 q 612 671 623 661 q 587 685 601 681 q 554 684 573 689 q 526 665 534 679 q 515 635 518 651 q 514 597 511 617 q 590 595 561 602 q 637 577 619 588 q 668 546 657 565 q 685 494 685 520 q 678 449 686 468 q 657 403 672 424 q 613 374 638 381 q 565 368 588 368 q 507 374 537 368 q 504 332 503 347 q 508 308 505 316 q 518 296 512 299 q 579 276 547 282 q 637 269 605 269 q 698 286 669 270 q 770 312 738 310 q 822 308 801 314 q 862 286 847 302 q 914 210 905 247 q 916 144 923 174 q 885 79 910 110 q 830 33 859 52 q 770 3 801 14 q 707 -10 739 -6 q 647 -15 676 -15 q 511 3 580 -15 q 445 18 482 14 q 371 16 413 21 q 279 -10 328 11 q 172 -25 214 -39 q 107 18 130 -10 q 65 104 79 53 q 63 159 59 135 q 76 202 66 183 q 99 234 86 221 q 127 256 112 248 q 210 282 163 277 q 204 308 205 293 q 204 337 204 323 q 206 368 204 353 q 150 365 174 365 q 103 381 126 366 q 65 421 75 398 q 54 468 55 445 "},"t":{"x_min":33,"x_max":981.171875,"ha":961,"o":"m 33 622 q 58 717 33 681 q 123 773 84 753 q 205 802 162 794 q 285 810 249 810 q 281 860 281 836 q 290 932 281 898 q 309 976 297 954 q 344 1016 322 999 q 398 1042 367 1032 q 474 1053 430 1053 q 549 1042 517 1053 q 603 1014 582 1032 q 639 973 625 995 q 661 929 653 951 q 675 832 676 885 q 675 807 675 820 q 708 808 692 808 q 828 794 774 808 q 884 774 857 787 q 933 741 911 761 q 968 692 955 721 q 981 622 981 662 q 970 558 981 585 q 940 511 959 530 q 898 479 921 492 q 851 460 875 467 q 741 446 801 446 q 721 446 731 446 q 741 322 741 380 q 732 214 741 264 q 711 129 726 171 q 671 56 697 87 q 606 3 645 24 q 512 -16 566 -16 q 378 21 423 -16 q 315 125 333 60 q 301 252 301 181 q 301 275 301 264 q 311 454 303 360 q 240 449 274 449 q 171 456 203 449 q 120 472 145 461 q 75 503 95 483 q 44 552 56 522 q 33 622 33 581 "},"W":{"x_min":60.015625,"x_max":1358.140625,"ha":1405,"o":"m 60 690 q 60 719 60 705 q 65 790 60 759 q 87 865 72 832 q 122 918 102 897 q 162 954 141 939 q 275 991 211 987 q 372 972 330 991 q 445 921 414 952 q 496 848 475 889 q 530 765 517 807 q 561 540 560 666 q 561 559 561 550 q 580 666 561 628 q 630 727 602 708 q 703 750 662 750 q 757 740 734 750 q 796 715 780 730 q 825 682 813 701 q 844 644 837 664 q 861 540 859 598 q 871 689 861 625 q 898 800 881 752 q 938 881 916 848 q 984 934 960 914 q 1109 991 1040 984 q 1192 978 1156 991 q 1255 945 1228 966 q 1299 898 1281 925 q 1328 843 1318 872 q 1358 690 1355 776 q 1342 485 1358 576 q 1307 326 1327 393 q 1257 189 1285 249 q 1218 120 1239 149 q 1173 69 1196 90 q 1125 33 1149 48 q 1078 10 1101 18 q 970 -10 1025 -10 q 883 2 920 -10 q 817 36 845 16 q 771 84 789 57 q 741 139 752 111 q 712 289 713 205 q 667 138 701 204 q 633 81 654 109 q 586 33 613 54 q 523 0 559 12 q 441 -13 487 -13 q 318 19 370 -13 q 231 92 266 52 q 162 199 191 138 q 103 372 123 285 q 73 530 83 460 q 60 690 62 613 "},">":{"x_min":54.265625,"x_max":601.578125,"ha":650,"o":"m 63 693 q 58 758 54 720 q 101 840 62 796 q 146 873 120 861 q 202 889 173 886 q 261 884 231 891 q 311 861 290 877 q 334 845 312 859 q 388 805 356 830 q 458 747 421 780 q 527 674 495 714 q 580 591 559 634 q 601 502 601 547 q 580 416 601 459 q 527 331 559 372 q 458 257 495 291 q 388 196 421 222 q 334 155 356 170 q 311 140 312 140 q 257 119 287 123 q 197 121 227 115 q 139 145 166 127 q 94 190 112 162 q 72 304 56 250 q 140 396 88 358 l 173 423 q 208 457 189 437 l 251 499 l 193 554 l 145 597 q 101 636 120 618 q 63 693 75 661 "},"v":{"x_min":36.53125,"x_max":889.828125,"ha":928,"o":"m 40 565 q 81 656 48 616 q 187 711 115 696 q 227 715 208 715 q 263 711 246 715 q 326 684 298 703 q 377 638 355 665 q 415 582 398 611 q 472 421 452 514 q 519 587 482 517 q 556 643 535 616 q 607 689 577 671 q 674 715 636 708 q 708 718 689 718 q 760 713 733 718 q 831 681 803 703 q 871 631 858 660 q 888 569 885 603 q 889 538 889 553 q 887 501 889 519 q 837 327 879 422 q 737 160 792 233 q 684 98 713 128 q 622 44 655 67 q 551 6 588 21 q 472 -8 514 -8 q 363 13 413 -8 q 271 69 314 34 q 196 147 229 104 q 137 232 162 189 q 93 312 111 275 q 66 375 76 350 q 41 463 50 411 q 36 519 35 491 q 40 565 35 542 "},"&":{"x_min":54.109375,"x_max":1060.34375,"ha":1108,"o":"m 64 188 q 54 270 55 226 q 63 368 52 315 q 94 461 71 414 q 148 551 113 501 q 242 648 183 601 q 205 763 215 706 q 205 868 197 812 q 261 972 213 925 q 354 1033 302 1013 q 457 1054 405 1053 q 559 1036 510 1055 q 644 980 608 1018 q 698 885 682 937 q 705 779 712 840 q 644 648 698 719 q 697 588 672 620 q 744 524 719 560 q 788 445 769 487 q 876 507 831 485 q 956 524 913 525 q 1034 479 999 523 q 1057 432 1051 455 q 1058 387 1062 409 q 1043 343 1053 365 q 1019 304 1033 322 q 933 219 986 259 q 1007 116 983 169 q 1021 69 1016 94 q 1022 19 1026 44 q 1002 -31 1018 -5 q 955 -79 986 -56 q 901 -106 927 -100 q 850 -109 874 -112 q 803 -97 825 -107 q 760 -73 780 -87 q 677 10 714 -42 q 540 -55 613 -33 q 472 -70 508 -65 q 395 -74 436 -76 q 310 -59 354 -71 q 221 -22 266 -47 q 120 67 161 12 q 88 121 103 91 q 64 188 73 151 m 376 295 q 388 263 377 280 q 421 242 404 242 q 453 250 438 241 q 484 278 468 258 l 427 358 q 385 325 396 342 q 376 295 375 309 "},"I":{"x_min":42.65625,"x_max":541.15625,"ha":583,"o":"m 43 531 q 49 669 44 599 q 83 823 55 755 q 114 880 95 852 q 157 929 132 908 q 218 965 183 951 q 298 979 253 979 q 400 946 354 975 q 440 914 420 934 q 477 865 460 894 q 507 797 494 836 q 527 708 521 758 q 540 524 538 611 q 540 468 541 495 q 539 371 540 415 q 527 228 535 294 q 491 107 518 160 q 462 63 479 84 q 422 24 445 41 q 368 -2 399 6 q 298 -12 338 -12 q 222 0 255 -12 q 163 34 189 13 q 120 82 137 55 q 90 136 103 108 q 54 282 62 201 q 44 406 46 339 q 43 483 43 447 q 43 531 42 508 "},"G":{"x_min":12,"x_max":1019.171875,"ha":1061,"o":"m 12 490 q 50 691 13 596 q 91 774 66 731 q 155 855 116 816 q 246 926 193 894 q 369 983 298 959 q 518 1001 444 1001 l 538 1001 q 614 993 573 1000 q 694 972 654 987 q 774 933 735 958 q 849 873 814 909 q 884 813 872 846 q 897 744 896 783 q 876 662 897 706 q 828 613 859 630 q 754 596 800 598 q 745 595 750 596 q 633 620 700 595 q 567 630 597 630 q 543 629 555 630 q 481 597 509 623 q 452 505 453 572 q 474 422 454 454 q 495 396 482 408 q 528 378 509 384 q 564 373 544 372 q 573 373 569 373 q 633 387 599 374 q 590 419 602 400 q 575 452 578 437 q 580 490 572 471 q 625 527 589 515 q 706 543 660 539 q 762 545 734 545 q 801 544 781 545 q 886 536 850 541 q 927 524 910 532 q 954 509 943 516 q 975 490 966 501 q 996 447 987 473 q 1010 389 1004 421 q 1017 324 1015 358 q 1019 257 1019 290 q 1010 90 1019 179 q 983 2 1006 33 q 934 -41 960 -27 q 865 -59 903 -58 q 806 -53 835 -59 q 753 -31 777 -47 q 716 11 730 -15 q 702 79 702 38 q 658 40 686 59 q 589 7 629 21 q 496 -8 549 -5 q 471 -10 484 -9 q 376 -1 427 -10 q 193 78 273 18 q 126 139 158 103 q 68 225 94 175 q 27 341 43 276 q 12 490 12 406 "},"`":{"x_min":74.921875,"x_max":461.84375,"ha":522,"o":"m 83 930 q 76 974 74 953 q 88 1013 79 994 q 109 1042 97 1031 q 131 1061 119 1051 q 160 1074 144 1070 q 198 1078 175 1079 q 252 1067 220 1077 q 301 1046 275 1060 q 353 1013 328 1031 q 400 977 378 996 q 433 945 422 958 q 452 911 445 928 q 461 876 459 895 q 452 836 463 857 q 423 804 441 812 q 386 793 405 796 q 344 796 365 790 q 259 815 301 803 q 185 842 223 826 q 117 885 146 858 q 83 930 91 907 "},"r":{"x_min":33,"x_max":788.546875,"ha":846,"o":"m 33 428 q 45 581 34 506 q 92 681 60 647 q 158 731 123 716 q 244 748 197 748 q 257 748 250 748 q 333 730 303 748 q 385 686 367 710 q 416 623 408 659 q 492 696 450 674 q 570 722 534 717 q 604 725 587 725 q 655 720 630 725 q 723 688 696 709 q 763 642 749 667 q 783 592 777 617 q 788 549 788 567 q 788 541 788 545 q 777 471 788 501 q 748 419 764 439 q 705 381 730 394 q 623 356 663 356 q 618 356 621 356 q 541 368 576 357 q 465 407 501 382 q 473 292 473 343 q 472 261 473 276 q 456 153 469 199 q 424 78 444 108 q 383 30 405 49 q 266 -10 333 -10 q 257 -9 261 -10 q 244 -10 250 -9 q 165 8 197 -10 q 108 55 130 29 q 68 125 83 86 q 38 281 45 200 q 33 391 33 340 q 33 428 33 410 "},"‒":{"x_min":66,"x_max":675.515625,"ha":730,"o":"m 66 397 q 76 465 63 433 q 113 519 87 493 q 194 558 139 546 q 329 575 265 573 q 441 575 393 578 q 548 561 498 571 q 622 525 596 548 q 659 478 648 501 q 674 419 673 450 q 669 355 677 384 q 640 304 662 329 q 575 266 619 279 q 383 239 472 239 q 196 254 294 239 q 120 285 147 261 q 82 333 92 308 q 66 397 66 363 "},"x":{"x_min":39.625,"x_max":828.09375,"ha":866,"o":"m 42 149 q 39 178 39 164 q 42 205 40 193 q 58 256 46 232 q 141 355 83 310 q 69 457 92 404 q 54 504 59 479 q 50 540 50 521 q 51 557 50 549 q 67 612 54 584 q 109 668 80 640 q 179 717 145 702 q 242 733 212 732 q 249 734 246 733 q 298 725 275 734 q 345 700 324 715 q 434 596 396 664 q 527 693 476 658 q 575 717 550 707 q 626 726 599 726 q 630 726 628 726 q 691 712 659 725 q 758 668 723 698 q 799 616 786 643 q 814 563 812 590 q 815 551 815 557 q 810 513 815 531 q 792 465 804 488 q 716 364 767 412 q 805 256 777 311 q 824 203 817 231 q 828 171 827 187 q 826 145 828 158 q 803 84 821 115 q 747 22 784 53 q 660 -27 701 -15 q 609 -35 633 -35 q 585 -33 596 -35 q 522 -7 551 -27 q 474 34 494 11 q 441 78 454 57 q 423 111 427 100 q 340 5 386 43 q 296 -21 320 -10 q 244 -32 271 -31 q 242 -32 243 -32 q 186 -20 216 -32 q 122 22 155 -8 q 65 88 84 56 q 42 149 46 119 "},"h":{"x_min":48.828125,"x_max":967.140625,"ha":1015,"o":"m 49 572 q 67 829 51 689 q 98 940 73 892 q 123 981 107 961 q 161 1016 139 1000 q 212 1040 183 1031 q 279 1049 241 1049 q 387 1019 343 1047 q 459 940 432 992 q 497 817 486 889 q 505 702 505 764 q 503 654 505 679 q 689 703 604 703 q 720 701 705 703 q 803 676 762 697 q 877 612 844 656 q 934 497 910 568 q 966 319 958 427 q 967 298 967 308 q 951 171 967 228 q 930 113 943 142 q 894 60 916 85 q 842 18 872 36 q 771 -6 812 0 l 754 -7 q 711 -6 737 -9 q 656 5 686 -3 q 600 35 626 13 q 555 93 573 57 q 533 184 536 129 q 522 282 527 239 q 506 349 515 318 q 484 380 498 380 q 489 292 489 329 q 489 268 489 279 q 489 228 489 245 q 486 175 487 197 q 454 82 479 122 q 392 17 433 46 q 279 -10 351 -10 q 165 19 207 -10 q 101 85 123 49 q 67 182 76 127 q 51 367 56 265 q 48 496 48 425 q 49 572 48 532 "},".":{"x_min":68,"x_max":417.96875,"ha":488,"o":"m 68 162 q 79 229 68 197 q 114 285 91 261 q 169 323 136 309 q 242 337 201 337 q 318 323 285 337 q 373 285 351 309 q 407 229 396 261 q 417 162 417 197 q 407 93 417 126 q 373 37 396 61 q 318 0 351 14 q 242 -13 286 -13 q 169 0 201 -13 q 114 37 136 14 q 79 93 91 61 q 68 162 68 126 "},";":{"x_min":69.28125,"x_max":379.234375,"ha":468,"o":"m 69 127 q 104 22 69 64 q 209 -25 140 -19 q 209 -50 211 -37 q 192 -64 208 -64 q 179 -66 185 -64 q 168 -73 173 -69 q 161 -86 164 -78 q 160 -107 158 -98 q 167 -121 161 -115 q 192 -131 173 -127 q 289 -112 247 -137 q 323 -84 307 -103 q 351 -36 339 -65 q 370 35 364 -6 q 373 134 376 77 q 332 236 371 194 q 222 279 294 279 q 108 235 147 279 q 69 127 69 191 m 72 554 q 111 662 72 616 q 225 708 151 708 q 340 662 301 708 q 379 554 379 616 q 340 443 379 487 q 225 400 301 400 q 111 443 151 400 q 72 554 72 487 "},"f":{"x_min":45,"x_max":842.171875,"ha":890,"o":"m 45 611 q 63 672 45 649 q 114 708 84 697 q 179 720 145 719 q 187 720 184 720 q 241 715 217 720 q 240 741 240 728 q 243 796 240 767 q 265 876 249 832 q 317 965 282 921 q 411 1036 355 1009 q 536 1067 461 1059 q 573 1070 553 1070 q 719 1048 637 1070 q 775 1020 750 1037 q 811 981 796 1004 q 823 935 823 962 q 822 921 823 928 q 810 876 820 895 q 781 846 800 859 q 734 835 764 834 q 727 835 730 835 q 693 829 708 835 q 665 815 679 825 q 644 786 651 805 q 640 768 641 779 q 637 729 637 753 q 637 713 637 721 q 724 726 684 726 q 737 725 730 726 q 807 700 774 722 q 842 623 839 679 q 842 617 842 620 q 817 541 842 564 q 757 508 790 516 q 708 502 735 502 q 668 504 689 502 q 681 333 681 412 q 677 244 681 287 q 660 149 672 196 q 624 64 647 102 q 565 3 601 27 q 476 -21 528 -20 q 457 -21 466 -22 q 336 9 380 -21 q 265 114 287 44 q 241 282 243 183 q 239 387 239 332 q 241 504 239 442 q 169 493 202 493 q 146 495 157 493 q 111 503 128 496 q 79 522 93 510 q 55 555 64 535 q 45 611 45 579 "}," ":{"x_min":0,"x_max":0,"ha":309},"“":{"x_min":48,"x_max":683.65625,"ha":751,"o":"m 48 728 q 52 824 46 784 q 70 893 58 864 q 98 938 82 921 q 132 966 115 955 q 226 985 172 991 q 248 975 242 982 q 257 961 255 968 q 255 942 258 953 q 238 922 250 926 q 226 920 233 920 q 207 907 208 920 q 208 882 206 894 q 308 836 274 878 q 343 735 343 794 q 305 632 343 674 q 197 590 267 590 q 89 630 126 590 q 48 728 51 670 m 388 728 q 392 824 385 784 q 410 893 398 864 q 439 938 422 921 q 472 966 455 955 q 567 985 512 991 q 589 975 582 982 q 597 961 596 968 q 596 942 598 953 q 579 922 590 926 q 567 920 573 920 q 548 907 548 920 q 548 882 547 894 q 649 836 615 878 q 683 735 683 794 q 646 632 683 674 q 537 590 608 590 q 429 630 467 590 q 388 728 391 670 "},"A":{"x_min":46.796875,"x_max":990.203125,"ha":1036,"o":"m 47 275 q 69 456 51 374 q 114 607 87 539 q 173 731 141 676 q 236 830 205 786 q 329 931 282 897 q 418 982 377 966 q 486 1000 459 998 q 518 1003 514 1003 q 549 1000 522 1003 q 617 982 576 998 q 707 931 658 966 q 801 830 755 897 q 863 731 832 786 q 921 607 894 676 q 966 456 948 539 q 988 275 984 374 q 990 243 990 259 q 982 163 990 201 q 968 117 978 140 q 945 74 959 94 q 911 38 931 54 q 864 12 891 22 q 794 0 830 1 q 773 -1 784 -1 q 727 1 751 -1 q 654 28 690 7 q 587 85 613 53 q 545 149 560 118 q 524 206 530 180 q 518 240 519 232 q 511 206 516 232 q 490 149 505 180 q 449 85 474 118 q 381 28 423 53 q 309 1 345 7 q 262 -1 284 -1 q 241 0 251 -1 q 172 12 205 1 q 124 38 144 22 q 91 74 104 54 q 68 117 78 94 q 55 163 59 140 q 46 252 46 205 q 47 275 46 263 m 485 413 q 523 403 500 403 q 562 417 547 403 q 577 454 577 430 q 563 494 577 477 q 523 512 550 512 q 482 494 499 512 q 467 460 467 479 q 485 413 467 427 "},"6":{"x_min":56.96875,"x_max":800.296875,"ha":853,"o":"m 65 330 q 62 459 56 398 q 83 574 67 521 q 121 673 98 628 q 169 757 144 719 q 307 909 227 843 q 416 971 365 961 q 507 975 466 982 q 592 937 553 967 q 629 899 616 919 q 648 861 642 880 q 651 825 653 843 q 644 790 649 807 q 600 715 632 752 l 560 669 q 536 639 545 651 q 519 615 525 623 q 614 602 573 615 q 685 569 655 590 q 735 522 715 548 q 768 469 755 495 q 800 325 797 405 q 785 213 800 261 q 745 130 769 165 q 689 70 720 94 q 625 30 658 46 q 451 -8 548 -5 q 337 6 387 -8 q 247 44 287 21 q 179 98 208 67 q 130 161 151 129 q 65 330 83 236 m 381 322 q 399 282 384 293 q 437 271 413 271 q 476 284 461 271 q 491 322 491 298 q 477 362 491 344 q 437 380 463 380 q 396 362 413 380 q 381 322 379 344 "},"O":{"x_min":46.125,"x_max":990.203125,"ha":1038,"o":"m 46 454 q 67 642 46 563 q 124 778 88 720 q 204 872 160 836 q 295 931 248 909 q 518 978 394 977 q 545 977 532 978 q 692 957 629 977 q 802 903 755 937 q 882 828 849 870 q 934 741 914 786 q 990 507 983 637 q 970 334 990 409 q 920 205 951 260 q 849 113 889 150 q 768 50 809 75 q 545 -15 671 -6 q 380 5 451 -15 q 257 58 309 25 q 168 133 204 90 q 108 220 132 175 q 46 454 52 322 m 486 433 q 524 422 501 422 q 563 436 548 422 q 579 473 579 450 q 565 513 579 495 q 524 531 551 531 q 484 514 501 531 q 469 479 469 498 q 486 433 469 447 "},"n":{"x_min":49.328125,"x_max":967.984375,"ha":994,"o":"m 50 368 q 49 388 50 378 q 55 501 49 439 q 87 607 62 560 q 111 646 96 627 q 147 681 126 666 q 195 708 168 697 q 256 721 222 718 q 290 723 274 723 q 356 716 328 723 q 420 690 395 706 q 458 655 445 674 q 481 619 471 636 q 697 684 599 684 q 709 684 703 684 q 795 665 751 682 q 873 606 838 647 q 934 496 909 566 q 967 319 958 427 q 967 298 968 309 q 952 171 967 229 q 930 113 943 142 q 895 60 917 85 q 842 18 872 36 q 771 -6 813 0 l 754 -7 q 712 -6 737 -9 q 657 5 686 -3 q 600 35 627 13 q 555 93 574 57 q 534 184 536 129 q 522 282 528 239 q 507 349 515 318 q 485 381 498 381 q 490 292 489 329 q 490 268 490 279 q 489 228 490 245 q 486 175 488 197 q 455 83 480 123 q 393 20 434 49 q 281 -10 352 -9 q 220 -3 247 -10 q 172 18 193 4 q 135 49 151 32 q 109 85 120 66 q 71 182 82 127 q 56 268 62 219 q 50 368 51 310 "},"‘":{"x_min":48,"x_max":343.1875,"ha":395,"o":"m 48 728 q 52 824 46 784 q 70 893 58 864 q 98 938 82 921 q 132 966 115 955 q 226 985 172 991 q 248 975 242 982 q 257 961 255 968 q 255 942 258 953 q 238 922 250 926 q 226 920 233 920 q 207 907 208 920 q 208 882 206 894 q 308 836 274 878 q 343 735 343 794 q 305 632 343 674 q 197 590 267 590 q 89 630 126 590 q 48 728 51 670 "},"3":{"x_min":37.875,"x_max":813.90625,"ha":858,"o":"m 47 152 q 37 192 38 173 q 41 229 37 212 q 84 304 50 267 q 148 337 113 333 q 212 333 183 340 q 282 304 246 325 q 339 281 314 284 q 383 280 365 278 q 419 295 404 284 q 439 324 434 309 q 442 352 444 340 q 433 380 441 368 q 408 403 423 396 q 377 413 393 411 q 340 416 359 417 q 241 437 274 416 q 196 483 209 458 q 180 551 180 512 q 204 616 180 590 q 259 658 229 642 q 339 687 294 676 q 240 683 282 680 q 168 693 198 686 q 119 713 139 701 q 87 739 99 725 q 61 815 59 771 q 73 870 61 845 q 106 911 86 894 q 151 941 126 929 q 202 962 176 954 q 341 984 263 980 q 493 979 423 988 q 610 948 552 971 q 694 880 668 926 q 718 781 722 828 q 699 698 715 734 q 649 617 681 655 q 735 554 702 592 q 784 478 768 515 q 811 387 804 433 q 797 222 820 288 q 739 115 773 155 q 644 38 699 67 q 445 -7 539 -6 q 279 8 351 -8 q 123 67 194 27 q 73 110 91 88 q 47 152 55 132 "},"9":{"x_min":48.828125,"x_max":798.859375,"ha":846,"o":"m 48 649 q 64 761 48 713 q 107 845 80 810 q 166 904 133 880 q 234 944 200 929 q 421 985 316 980 q 534 970 484 985 q 621 932 583 955 q 687 877 659 908 q 734 816 715 847 q 794 649 780 742 q 796 520 802 582 q 773 404 790 458 q 733 304 756 350 q 685 221 710 258 q 541 65 623 132 q 427 -1 479 11 q 336 -6 375 -13 q 252 30 290 1 q 216 68 229 49 q 200 107 204 87 q 197 147 196 127 q 204 183 198 167 q 248 261 216 223 l 286 306 l 311 337 q 327 361 322 353 q 232 373 273 361 q 162 406 191 386 q 111 452 132 426 q 79 505 91 478 q 48 649 50 569 m 376 597 q 393 557 379 568 q 432 545 408 545 q 471 559 455 545 q 486 597 486 573 q 472 637 486 619 q 432 655 458 655 q 391 637 408 655 q 376 597 373 619 "},"l":{"x_min":45,"x_max":487.890625,"ha":547,"o":"m 54 281 q 45 446 45 359 q 48 608 45 533 q 60 778 52 694 q 92 915 68 854 q 119 965 103 941 q 156 1010 134 990 q 206 1041 177 1029 q 271 1053 235 1053 q 366 1019 323 1051 q 403 985 384 1006 q 437 932 422 964 q 464 857 452 900 q 479 757 475 814 q 487 544 487 645 q 485 364 487 443 q 473 190 481 271 q 442 83 466 129 q 416 44 432 63 q 378 10 400 25 q 327 -12 356 -3 q 270 -19 301 -19 q 259 -19 264 -19 q 197 -4 224 -18 q 147 29 169 8 q 111 77 126 50 q 86 132 96 104 q 54 281 62 197 "},"4":{"x_min":41.375,"x_max":851.171875,"ha":901,"o":"m 49 404 q 45 476 41 437 q 59 553 48 514 q 141 750 84 643 q 208 845 173 806 q 278 911 242 885 q 347 951 314 936 q 413 973 381 965 q 558 971 487 988 q 628 934 598 960 q 679 875 658 908 q 713 802 699 842 q 733 724 726 762 q 744 522 750 632 q 805 502 784 521 q 837 460 826 484 q 851 400 849 433 q 833 334 851 357 q 797 298 816 310 q 744 281 773 285 q 739 135 754 199 q 718 81 732 107 q 683 36 705 56 q 628 3 661 16 q 550 -9 596 -9 q 477 3 508 -9 q 426 36 446 16 q 393 81 405 56 q 375 135 380 107 q 368 281 359 199 q 270 285 312 281 q 200 294 229 289 q 141 310 165 300 q 78 346 100 321 q 49 404 56 371 m 291 541 q 308 501 294 512 q 347 490 323 490 q 386 504 370 490 q 401 541 401 518 q 387 582 401 564 q 347 600 373 600 q 306 582 323 600 q 291 541 288 564 "},"p":{"x_min":38,"x_max":956.171875,"ha":972,"o":"m 40 161 q 52 276 42 217 q 78 392 61 335 q 121 503 95 450 q 186 600 148 557 q 311 688 236 656 q 470 728 387 719 q 530 731 500 730 q 638 722 584 731 q 791 669 722 707 q 854 619 825 648 q 905 557 880 594 q 944 469 929 519 q 956 361 956 422 q 945 255 956 308 q 911 149 935 199 q 851 69 887 99 q 783 24 818 41 q 714 0 748 8 q 649 -9 680 -7 q 628 -10 639 -10 q 590 -7 608 -10 q 464 25 525 -2 q 478 -104 478 -45 q 475 -162 478 -134 q 459 -230 471 -197 q 425 -290 447 -263 q 369 -332 403 -316 q 285 -348 335 -348 q 215 -337 245 -348 q 160 -310 184 -327 q 119 -272 137 -294 q 88 -227 101 -251 q 49 -105 59 -173 q 38 79 38 -11 q 40 161 38 120 m 492 282 q 531 271 507 271 q 569 284 554 271 q 584 322 584 298 q 571 362 584 344 q 531 380 557 380 q 489 363 507 380 q 474 328 474 347 q 492 282 474 296 "}," ":{"x_min":0,"x_max":0,"ha":68}}}
